<?xml version="1.0" encoding="UTF-8"?>
<!DOCTYPE svg PUBLIC "-//W3C//DTD SVG 1.1//EN" "http://www.w3.org/Graphics/SVG/1.1/DTD/svg11.dtd">
<!-- Creator: CorelDRAW -->
<svg xmlns="http://www.w3.org/2000/svg" xml:space="preserve" width="210mm" height="297mm" version="1.1" style="shape-rendering:geometricPrecision; text-rendering:geometricPrecision; image-rendering:optimizeQuality; fill-rule:evenodd; clip-rule:evenodd"
viewBox="0 0 21000 29700"
 xmlns:xlink="http://www.w3.org/1999/xlink"
 xmlns:xodm="http://www.corel.com/coreldraw/odm/2003">
 <defs>
  <style type="text/css">
   <![CDATA[
    .fil2 {fill:#1A1A18;fill-rule:nonzero}
    .fil0 {fill:#1B3C87;fill-rule:nonzero}
    .fil1 {fill:white;fill-rule:nonzero}
   ]]>
  </style>
 </defs>
 <g id="Layer_x0020_1">
  <metadata id="CorelCorpID_0Corel-Layer"/>
  <path id="path1940" class="fil0" d="M11398.64 13681.43c0,775.99 -629.06,1405.05 -1405.05,1405.05 -775.99,0 -1405.05,-629.06 -1405.05,-1405.05 0,-775.99 629.06,-1405.05 1405.05,-1405.05 775.99,0 1405.05,629.06 1405.05,1405.05z"/>
  <path id="path1942" class="fil1" d="M10471.33 13024.35l-955.53 0 0 189.87 336.98 0c123.7,0 229.26,79.33 268.48,189.86l-605.46 0 0 189.77 605.46 0c-39.22,110.53 -144.78,189.87 -268.48,189.87l-336.98 0 0 189.86 556.38 556.41 134.2 -134.3 -422.1 -422.11 68.5 0c229.16,0 420.92,-163.3 465.04,-379.73l153.51 0 0 -189.77 -153.51 0c-14.3,-70.13 -44.01,-134.64 -85.59,-189.86l239.1 0 0 -189.87z"/>
  <path id="path2672" class="fil2" d="M9532.68 16026.29l125.47 0c51.1,0 100.77,-29.08 100.77,-92.27 0,-39.84 -24.85,-74.47 -71.7,-81.51l0 -0.46c38.89,-9.43 61.86,-41.68 61.86,-78.18 0,-53.9 -37.04,-82.05 -93.19,-82.05l-123.21 0 0 334.42 0 0.05zm29.48 -25.36l0 -133.82 88.02 0c43.55,0 78.72,20.06 78.72,65.99 0,46.85 -34.25,67.83 -77.8,67.83l-88.94 0zm0 -158.64l0 -125.06 86.69 0c39.83,0 71.16,18.19 71.16,61.32 0,43.96 -36.12,63.74 -75.41,63.74l-82.44 0zm319.44 189.17c28.53,0 59.86,-6.09 79.13,-42.21l0.92 0c0,7.04 0.92,29.07 1.84,37.04l27.23 0c-1.46,-10.35 -3.33,-45.01 -3.33,-58.56l0 -113.38c0,-50.56 -40.22,-66.91 -85.63,-66.91 -43.53,0 -86.69,17.27 -86.69,63.74l0 7.04 25.26 0 0 -7.58c0,-30.41 30.92,-40.76 59.99,-40.76 35.2,0 59.48,12.63 59.48,49.26l0 35.97 -68.39 0c-38.38,0 -86.69,17.39 -86.69,69.85 0,43.01 34.66,66.5 76.88,66.5zm7.43 -21.49c-29.49,0 -56.69,-15.01 -56.69,-46.47 0,-39.83 32.79,-47.8 64.65,-47.8l62.79 0 0 26.28c0,40.22 -23.9,67.99 -70.75,67.99zm164.48 16.32l27.1 0 0 -139.53c0,-45.93 35.17,-75.01 72.08,-75.01 31.87,0 53.52,18.32 53.52,61.87l0 152.67 27.61 0 0 -165.28c0,-40.78 -23.9,-73.57 -72.62,-73.57 -32.82,0 -64.15,16.88 -80.59,50.06l-0.92 0 0 -44.47 -26.18 0 0 233.26zm248.27 0l27.64 0 0 -80.05 45.42 -47.8 75.8 127.85 30.91 0 -87.5 -147.5 80.08 -85.76 -33.74 0 -111 121.34 0 -222.5 -27.61 0 0 334.42z"/>
 </g>
</svg>
