<?xml version="1.0" encoding="UTF-8"?>
<!DOCTYPE svg PUBLIC "-//W3C//DTD SVG 1.1//EN" "http://www.w3.org/Graphics/SVG/1.1/DTD/svg11.dtd">
<!-- Creator: CorelDRAW -->
<svg xmlns="http://www.w3.org/2000/svg" xml:space="preserve" width="210mm" height="297mm" version="1.1" style="shape-rendering:geometricPrecision; text-rendering:geometricPrecision; image-rendering:optimizeQuality; fill-rule:evenodd; clip-rule:evenodd"
viewBox="0 0 21000 29700"
 xmlns:xlink="http://www.w3.org/1999/xlink"
 xmlns:xodm="http://www.corel.com/coreldraw/odm/2003">
 <defs>
  <style type="text/css">
   <![CDATA[
    .fil2 {fill:#1A1A18;fill-rule:nonzero}
    .fil0 {fill:#1B3C87;fill-rule:nonzero}
    .fil1 {fill:white;fill-rule:nonzero}
   ]]>
  </style>
 </defs>
 <g id="Layer_x0020_1">
  <metadata id="CorelCorpID_0Corel-Layer"/>
  <path id="path1962" class="fil0" d="M12115.98 13773.02c44.91,774.63 -546.65,1439.01 -1321.36,1483.94 -774.66,44.91 -1439.04,-546.65 -1483.95,-1321.28 -44.9,-774.74 546.63,-1439.12 1321.37,-1484.02 774.63,-44.91 1439.01,546.72 1483.94,1321.36z"/>
  <path id="path2042" class="fil1" d="M10713.32 13924.79c21.87,0 39.68,-17.8 39.68,-39.68 -2.18,-52.48 -77.19,-52.48 -79.36,0 0,21.88 17.8,39.68 39.68,39.68z"/>
  <path id="path2044" class="fil1" d="M10752.97 14479.67l0 -277.43c-2.15,-52.61 -77.08,-52.61 -79.26,0l0 277.43 -79.28 0 0 -277.43c6.51,-157.79 231.26,-157.69 237.77,0l0 277.43 -79.23 0zm-39.65 -713.36c65.6,0 118.91,53.3 118.91,118.83 -6.51,157.77 -231.27,157.69 -237.77,0 0,-65.53 53.33,-118.83 118.86,-118.83zm-515.22 475.59l79.28 0 0 158.51 -79.28 0 0 -158.51zm951.2 0l79.26 0 0 158.51 -79.26 0 0 -158.51zm158.52 237.77l0 -335.09 -237.77 -208.03 0 543.12 -79.34 0 0 -728.09 -237.77 -277.45 0 -165.82 79.26 0 0 -79.36 -79.23 0 0 -79.23 -79.28 0 0 79.23 -79.26 0 0 79.36 79.26 0 0 165.82 -237.85 277.45 0 728.09 -79.26 0 0 -543.12 -237.74 208.03 0 335.09 -79.26 0 0 79.25 1347.49 0 0 -79.25 -79.25 0z"/>
  <path id="path2690" class="fil2" d="M10046.35 16254.61c67.44,0 115.76,-37.04 115.76,-96.49l0 -13.17 -28.64 0 0 7.97c0,45.54 -32.28,75.41 -87.1,75.41 -57.1,0 -95.98,-34.63 -95.98,-88.94l0 -114.3c0,-54.84 39.29,-90.42 93.73,-90.42 55.23,0 89.35,29.61 89.35,75l0 14.09 28.64 0 0 -18.72c0,-57.23 -49.26,-97.06 -116.69,-97.06 -72.62,0 -124.54,48.33 -124.54,116.7l0 119.35c0,72.62 54.84,110.58 125.47,110.58zm175.75 -6.09l27.1 0 0 -139.53c0,-45.93 35.17,-75.01 72.08,-75.01 31.87,0 53.52,18.32 53.52,61.86l0 152.68 27.61 0 0 -165.28c0,-40.78 -23.9,-73.57 -72.62,-73.57 -31.87,0 -63.2,16.88 -79.13,50.06l-1.46 0 0 -145.63 -27.1 0 0 334.42zm318.51 5.58c32.79,0 64.12,-16.34 80.59,-50.05l0.92 0 0 44.47 26.16 0 0 -233.26 -27.08 0 0 139.53c0,45.93 -35.17,75 -71.7,75 -32.38,0 -53.9,-18.31 -53.9,-61.86l0 -152.67 -27.61 0 0 165.27c0,40.78 23.9,73.57 72.62,73.57zm175.65 -5.58l27.59 0 0 -129.7c1.46,-52.97 36.53,-81.12 81.54,-81.12 5.56,0 13.52,0 21.49,1.46l0 -25.77c-4.64,-0.93 -10.76,-1.46 -16.32,-1.46 -31.48,0 -66.11,11.29 -86.71,52.97l-0.92 0 0 -49.64 -26.67 0 0 233.26zm254.37 6.09c55.23,0 88.56,-30.91 88.56,-77.25l0 -6.1 -26.72 0 0 7.97c0,24.28 -17.4,51.89 -61.46,51.89 -46.33,0 -65.44,-28.94 -65.44,-69.7l0 -56.69c0,-40.75 21.49,-71.7 65.03,-71.7 44.09,0 61.87,28.16 61.87,52.06l0 9.29 26.69 0 0 -7.04c0,-46.34 -34.25,-77.26 -89.09,-77.26 -56.15,0 -93.19,36.12 -93.19,96.52l0 54.28c0,60.02 35.7,93.73 93.72,93.73l0.03 0zm141.48 -6.09l27.1 0 0 -139.53c0,-45.93 35.17,-75.01 72.09,-75.01 31.86,0 53.51,18.32 53.51,61.86l0 152.68 27.61 0 0 -165.28c0,-40.78 -23.9,-73.57 -72.62,-73.57 -31.87,0 -63.2,16.88 -79.13,50.06l-1.46 0 0 -145.63 -27.1 0 0 334.42z"/>
 </g>
</svg>
