<?xml version="1.0" encoding="UTF-8"?>
<!DOCTYPE svg PUBLIC "-//W3C//DTD SVG 1.1//EN" "http://www.w3.org/Graphics/SVG/1.1/DTD/svg11.dtd">
<!-- Creator: CorelDRAW -->
<svg xmlns="http://www.w3.org/2000/svg" xml:space="preserve" width="210mm" height="297mm" version="1.1" style="shape-rendering:geometricPrecision; text-rendering:geometricPrecision; image-rendering:optimizeQuality; fill-rule:evenodd; clip-rule:evenodd"
viewBox="0 0 21000 29700"
 xmlns:xlink="http://www.w3.org/1999/xlink"
 xmlns:xodm="http://www.corel.com/coreldraw/odm/2003">
 <defs>
  <style type="text/css">
   <![CDATA[
    .fil2 {fill:#1A1A18;fill-rule:nonzero}
    .fil0 {fill:#1B3C87;fill-rule:nonzero}
    .fil1 {fill:white;fill-rule:nonzero}
   ]]>
  </style>
 </defs>
 <g id="Layer_x0020_1">
  <metadata id="CorelCorpID_0Corel-Layer"/>
  <path id="path1930" class="fil0" d="M11705.19 12087.35c0,776 -629.06,1405.05 -1405.05,1405.05 -775.99,0 -1405.05,-629.05 -1405.05,-1405.05 0,-775.99 629.06,-1405.05 1405.05,-1405.05 775.99,0 1405.05,629.06 1405.05,1405.05z"/>
  <path id="path2000" class="fil1" d="M10416.21 12065.48l-158.23 -92.55c-8.4,-5.05 -16.81,-5.05 -25.23,0 -8.41,5.07 -13.45,13.47 -13.45,21.87l0 183.44c0,8.4 5.04,16.83 13.45,21.88 3.35,1.71 8.42,3.35 13.47,3.35 5.07,0 8.4,-1.64 13.47,-3.35l158.24 -92.53c8.4,-5.07 13.47,-13.47 13.47,-21.88 0,-8.5 -6.79,-15.19 -15.19,-20.23z"/>
  <path id="path2002" class="fil1" d="M10791.49 11880.35c0,13.45 -11.74,25.21 -25.21,25.21l-129.67 0c-13.37,0 -25.21,-11.76 -25.21,-25.21l0 -129.59c0,-13.48 11.84,-25.21 25.21,-25.21l129.67 0c13.47,0 25.21,11.73 25.21,25.21l0 129.59zm0 270.92c0,13.47 -11.74,25.31 -25.21,25.31l-129.67 0c-13.37,0 -25.21,-11.84 -25.21,-25.31l0 -129.6c0,-13.47 11.84,-25.2 25.21,-25.2l129.67 0c13.47,0 25.21,11.73 25.21,25.2l0 129.6zm0 272.73c0,13.45 -11.74,25.21 -25.21,25.21l-129.67 0c-13.37,0 -25.21,-11.76 -25.21,-25.21l0 -129.59c0,-13.47 11.84,-25.31 25.21,-25.31l129.67 0c13.47,0 25.21,11.84 25.21,25.31l0 129.59zm-491.43 -104.38c-127.95,0 -232.23,-104.36 -232.23,-232.24 0,-127.98 104.28,-232.26 232.23,-232.26 127.88,0 232.27,104.28 232.27,232.26 0,127.88 -104.39,232.24 -232.27,232.24zm-311.39 -439.27c0,13.45 -11.75,25.21 -25.23,25.21l-129.56 0c-13.48,0 -25.31,-11.76 -25.31,-25.21l0 -129.59c0,-13.48 11.83,-25.21 25.31,-25.21l129.56 0c13.48,0 25.23,11.73 25.23,25.21l0 129.59zm0 270.92c0,13.47 -11.75,25.31 -25.23,25.31l-129.56 0c-13.48,0 -25.31,-11.84 -25.31,-25.31l0 -129.6c0,-13.47 11.83,-25.2 25.31,-25.2l129.56 0c13.48,0 25.23,11.73 25.23,25.2l0 129.6zm0 272.73c0,13.45 -11.75,25.21 -25.23,25.21l-129.56 0c-13.48,0 -25.31,-11.76 -25.31,-25.21l0 -129.59c0,-13.47 11.83,-25.31 25.31,-25.31l129.56 0c13.48,0 25.23,11.84 25.23,25.31l0 129.59zm846.59 -942.55l-43.77 0 0 124.52c0,13.48 -11.74,25.31 -25.21,25.31l-129.67 0c-13.37,0 -25.21,-11.83 -25.21,-25.31l0 -124.52 -622.73 0 0 124.52c0,13.48 -11.75,25.31 -25.23,25.31l-129.56 0c-13.48,0 -25.31,-11.83 -25.31,-25.31l0 -124.52 -43.76 0c-13.44,0 -23.49,10.12 -23.49,23.6l0 1161.31c0,13.37 10.05,23.51 23.49,23.51l43.76 0 0 -124.54c0,-13.45 11.83,-25.21 25.31,-25.21l129.56 0c13.48,0 25.23,11.76 25.23,25.21l0 127.87 622.73 0 0 -124.52c0,-13.47 11.84,-25.2 25.21,-25.2l129.67 0c13.47,0 25.21,11.73 25.21,25.2l0 124.52 43.77 0c13.45,0 23.6,-10.04 23.6,-23.49l0 -1161.33c1.61,-15.17 -10.15,-26.93 -23.6,-26.93z"/>
  <path id="path2706" class="fil2" d="M9780.9 14450.22c67.45,0 115.76,-37.04 115.76,-96.5l0 -13.16 -28.66 0 0 7.96c0,45.55 -32.28,75.42 -87.1,75.42 -57.1,0 -95.98,-34.64 -95.98,-88.94l0 -114.3c0,-54.85 39.29,-90.43 93.73,-90.43 55.23,0 89.35,29.62 89.35,75.01l0 14.09 28.66 0 0 -18.73c0,-57.23 -49.26,-97.06 -116.68,-97.06 -72.62,0 -124.55,48.34 -124.55,116.71l0 119.35c0,72.62 54.85,110.58 125.47,110.58zm175.75 -6.1l27.11 0 0 -233.26 -27.11 0 0 233.26zm0 -289.41l27.11 0 0 -47.8 -27.11 0 0 47.8zm97.45 289.41l27.1 0 0 -139.53c0,-45.93 35.17,-75 72.08,-75 31.87,0 53.52,18.31 53.52,61.86l0 152.67 27.61 0 0 -165.27c0,-40.78 -23.9,-73.57 -72.62,-73.57 -32.82,0 -64.14,16.88 -80.59,50.05l-0.95 0 0 -44.47 -26.15 0 0 233.26zm334.44 6.1c30.95,0 63.2,-9.43 84.72,-40.35l-20.6 -13.01c-12.6,15.4 -32.25,29.87 -62.25,29.87 -45,0 -71.16,-26.15 -71.16,-67.45l0 -27.61 158.77 0 0 -34.12c0,-60 -37.96,-91.86 -90.01,-91.86 -55.75,0 -97.45,35.58 -97.45,99.82l0 50.6c0,64.11 40.76,94.11 97.98,94.11zm-69.29 -138.2l0 -12.6c0,-37.45 23.9,-70.78 66.5,-70.78 44.88,0 65.07,30.94 65.07,67.45l0 15.93 -131.57 0zm215.87 132.1l27.64 0 0 -141.91c0,-45.96 37.96,-72.62 70.75,-72.62 33.71,0 52.44,20.18 53.39,60.4l0 154.13 27.17 0 0 -143.37c1.34,-41.17 34.13,-71.16 70.24,-71.16 33.71,0 53.9,19.65 53.9,61.86l0 152.67 27.1 0 0 -167.68c0,-41.68 -27.07,-71.16 -72.62,-71.16 -34.66,0 -65.99,17.8 -82.84,50.97l-0.57 0c-6.5,-27.07 -27.61,-50.97 -65.96,-50.97 -33.73,0 -64.65,16.88 -81,50.05l-0.92 0 0 -44.47 -26.28 0 0 233.26zm463.19 5.18c28.54,0 59.87,-6.1 79.13,-42.22l0.92 0c0,7.05 0.92,29.08 1.85,37.04l27.25 0c-1.46,-10.35 -3.33,-45 -3.33,-58.56l0 -113.37c0,-50.57 -40.22,-66.91 -85.63,-66.91 -43.52,0 -86.69,17.26 -86.69,63.73l0 7.05 25.21 0 0 -7.59c0,-30.4 30.92,-40.75 59.99,-40.75 35.2,0 59.48,12.63 59.48,49.26l0 35.96 -68.34 0c-38.37,0 -86.69,17.4 -86.69,69.86 0,43.01 34.66,66.5 76.88,66.5l-0.03 0zm7.43 -21.49c-29.48,0 -56.69,-15.02 -56.69,-46.47 0,-39.83 32.79,-47.8 64.66,-47.8l62.78 0 0 26.28c0,40.22 -23.9,67.99 -70.75,67.99z"/>
  <path id="path2708" class="fil2" d="M9722.34 15081.07l29.59 0 0 -308.14 112.33 0 0 -25.74 -254.78 0 0 25.74 112.86 0 0 308.14zm188.9 0l27.1 0 0 -139.53c0,-45.93 35.17,-75 72.08,-75 31.87,0 53.51,18.31 53.51,61.86l0 152.67 27.62 0 0 -165.27c0,-40.79 -23.9,-73.57 -72.62,-73.57 -31.87,0 -63.2,16.88 -79.13,50.05l-1.46 0 0 -145.63 -27.1 0 0 334.42zm334.44 6.1c30.95,0 63.2,-9.43 84.71,-40.35l-20.59 -13.01c-12.6,15.39 -32.25,29.87 -62.25,29.87 -45.01,0 -71.16,-26.16 -71.16,-67.45l0 -27.61 158.79 0 0 -34.13c0,-59.99 -37.96,-91.85 -90.01,-91.85 -55.74,0 -97.44,35.58 -97.44,99.82l0 50.59c0,64.12 40.75,94.12 97.98,94.12l-0.03 0zm-69.29 -138.2l0 -12.61c0,-37.45 23.9,-70.77 66.5,-70.77 44.88,0 65.06,30.94 65.06,67.44l0 15.94 -131.56 0zm280.52 137.28c28.54,0 59.87,-6.1 79.13,-42.22l0.92 0c0,7.04 0.93,29.07 1.85,37.04l27.23 0c-1.46,-10.35 -3.33,-45.01 -3.33,-58.56l0 -113.38c0,-50.56 -40.22,-66.9 -85.64,-66.9 -43.52,0 -86.68,17.26 -86.68,63.73l0 7.04 25.23 0 0 -7.58c0,-30.41 30.92,-40.75 59.99,-40.75 35.2,0 59.48,12.62 59.48,49.26l0 35.96 -68.37 0c-38.37,0 -86.68,17.39 -86.68,69.86 0,43.01 34.66,66.5 76.87,66.5zm7.43 -21.5c-29.48,0 -56.69,-15.01 -56.69,-46.46 0,-39.84 32.79,-47.8 64.66,-47.8l62.78 0 0 26.28c0,40.22 -23.9,67.98 -70.75,67.98zm238.98 20.57c9.81,0 28.53,-1.46 43.54,-6.12l0 -23.87c-11.29,2.76 -23.51,5.17 -35.71,5.17 -23.77,0 -36.52,-7.97 -36.52,-33.33l0 -156.38 69.31 0 0 -22.44 -69.31 0 0 -73.55 -27.59 0 0 73.55 -43.53 0 0 22.44 43.53 0 0 163.94c0,39.3 27.23,50.59 56.3,50.59l-0.02 0zm89.34 -4.25l27.59 0 0 -129.69c1.46,-52.98 36.53,-81.13 81.54,-81.13 5.56,0 13.53,0 21.49,1.46l0 -25.77c-4.63,-0.92 -10.76,-1.46 -16.32,-1.46 -31.48,0 -66.11,11.3 -86.71,52.97l-0.92 0 0 -49.64 -26.67 0 0 233.26zm258.6 6.1c30.94,0 63.2,-9.43 84.71,-40.35l-20.59 -13.01c-12.61,15.39 -32.25,29.87 -62.25,29.87 -45.01,0 -71.16,-26.16 -71.16,-67.45l0 -27.61 158.79 0 0 -34.13c0,-59.99 -37.96,-91.85 -90.01,-91.85 -55.74,0 -97.45,35.58 -97.45,99.82l0 50.59c0,64.12 40.76,94.12 97.99,94.12l-0.03 0zm-69.29 -138.2l0 -12.61c0,-37.45 23.9,-70.77 66.5,-70.77 44.88,0 65.06,30.94 65.06,67.44l0 15.94 -131.56 0z"/>
 </g>
</svg>
