<?xml version="1.0" encoding="UTF-8"?>
<!DOCTYPE svg PUBLIC "-//W3C//DTD SVG 1.1//EN" "http://www.w3.org/Graphics/SVG/1.1/DTD/svg11.dtd">
<!-- Creator: CorelDRAW -->
<svg xmlns="http://www.w3.org/2000/svg" xml:space="preserve" width="210mm" height="297mm" version="1.1" style="shape-rendering:geometricPrecision; text-rendering:geometricPrecision; image-rendering:optimizeQuality; fill-rule:evenodd; clip-rule:evenodd"
viewBox="0 0 21000 29700"
 xmlns:xlink="http://www.w3.org/1999/xlink"
 xmlns:xodm="http://www.corel.com/coreldraw/odm/2003">
 <defs>
  <style type="text/css">
   <![CDATA[
    .fil2 {fill:#1A1A18;fill-rule:nonzero}
    .fil0 {fill:#1B3C87;fill-rule:nonzero}
    .fil1 {fill:white;fill-rule:nonzero}
   ]]>
  </style>
 </defs>
 <g id="Layer_x0020_1">
  <metadata id="CorelCorpID_0Corel-Layer"/>
  <path id="path1948" class="fil0" d="M11268.13 13990.18c0,775.99 -629.06,1405.05 -1405.05,1405.05 -775.99,0 -1405.05,-629.06 -1405.05,-1405.05 0,-775.99 629.06,-1405.05 1405.05,-1405.05 775.99,0 1405.05,629.06 1405.05,1405.05z"/>
  <path id="path1950" class="fil1" d="M10613.94 13698.1l-648.11 -305.16c-11.76,-5.51 -25.67,-5.51 -37.43,0l-648.12 305.16c-32.89,15.48 -33.78,61.64 -1.89,78.36l54.23 28.82 44.01 23.24 -97.6 74.92 -2.18 0.98 -65.7 313.85 131.66 0 21.96 -256.91 110.35 -80.79 140.35 74.36 311.03 164.84c13.02,6.79 28.21,6.79 41.22,0l311.32 -164.84 282.57 -149.65 54.23 -28.82c32.17,-16.72 30.92,-62.88 -1.9,-78.36zm-646.19 531.39c-13.02,6.76 -28.21,6.76 -41.22,0l-408.09 -195.56 -43.93 338.34c0,84.84 219.68,219.33 483.02,219.33 263.33,0 482.94,-134.49 482.94,-219.33l-43.93 -349.2 -428.79 206.42z"/>
  <g>
   <path id="path2694" class="fil2" d="M8135.01 16326.46c67.45,0 115.76,-37.04 115.76,-96.5l0 -13.17 -28.67 0 0 7.97c0,45.55 -32.27,75.42 -87.09,75.42 -57.1,0 -95.99,-34.64 -95.99,-88.94l0 -114.3c0,-54.85 39.3,-90.43 93.73,-90.43 55.23,0 89.35,29.61 89.35,75.01l0 14.08 28.67 0 0 -18.72c0,-57.23 -49.26,-97.06 -116.68,-97.06 -72.63,0 -124.55,48.34 -124.55,116.71l0 119.34c0,72.62 54.84,110.59 125.47,110.59zm260.05 0c53.77,0 93.61,-31.84 93.61,-92.27l0 -60.41c0,-59.07 -37.05,-91.85 -94.53,-91.85 -53.48,0 -94.65,31.45 -94.65,92.26l0 62.79c0,59.1 38.37,89.48 95.57,89.48zm0 -23.49c-45.93,0 -67.96,-27.08 -67.96,-66.91l0 -62.79c0,-41.7 22.96,-67.85 67.04,-67.85 45.8,0 66.91,28.02 66.91,65.98l0 63.2c0,44.6 -22.03,68.37 -65.99,68.37zm205.55 19.77c10.35,0 23.49,-1.46 34.66,-4.76l0 -20.98c-7.43,0.92 -16.35,2.25 -25.77,2.25 -23.36,0 -33.71,-14.06 -33.71,-32.25l0 -281.06 -27.64 0 0 279.19c0,28.95 11.68,57.61 52.43,57.61l0.03 0zm135.41 0c10.35,0 23.49,-1.46 34.65,-4.76l0 -20.98c-7.42,0.92 -16.34,2.25 -25.77,2.25 -23.36,0 -33.71,-14.06 -33.71,-32.25l0 -281.06 -27.64 0 0 279.19c0,28.95 11.69,57.61 52.44,57.61l0.03 0zm168.7 3.72c30.95,0 63.2,-9.43 84.72,-40.35l-20.6 -13.01c-12.6,15.39 -32.25,29.87 -62.25,29.87 -45,0 -71.16,-26.16 -71.16,-67.45l0 -27.61 158.77 0 0 -34.13c0,-59.99 -37.96,-91.85 -90.01,-91.85 -55.74,0 -97.45,35.58 -97.45,99.82l0 50.59c0,64.12 40.76,94.12 97.98,94.12zm-69.26 -138.2l0 -12.61c0,-37.45 23.9,-70.77 66.5,-70.77 44.88,0 65.06,30.94 65.06,67.44l0 15.94 -131.56 0zm291.77 228.62c64.11,0 98.77,-42.21 98.77,-96.52l0 -233.26 -26.69 0 0 42.22c-12.19,-34.25 -47.77,-47.8 -73.54,-47.8 -41.68,0 -84.84,28.02 -84.84,87.09l0 69.32c0,48.18 30.94,80.05 82.45,80.05 29.62,0 60,-13.01 75.93,-46.34l0 51.51c0,44.06 -27.2,71.16 -70.21,71.16 -24.83,0 -44.09,-9.29 -59.1,-28.94l-24.82 11.14c17.8,27.62 48.72,40.37 82.05,40.37zm4.66 -121.34c-40.78,0 -62.81,-25.23 -62.81,-57.61l0 -71.16c0,-42.63 31.86,-61.35 62.27,-61.35 32.79,0 67.96,24.82 67.96,69.7l0 44.62c0,52.44 -34.63,75.8 -67.42,75.8zm250.12 30.92c30.94,0 63.19,-9.43 84.71,-40.35l-20.6 -13.01c-12.6,15.39 -32.25,29.87 -62.24,29.87 -45.01,0 -71.17,-26.16 -71.17,-67.45l0 -27.61 158.77 0 0 -34.13c0,-59.99 -37.96,-91.85 -90.01,-91.85 -55.74,0 -97.45,35.58 -97.45,99.82l0 50.59c0,64.12 40.76,94.12 97.99,94.12zm-69.3 -138.2l0 -12.61c0,-37.45 23.9,-70.77 66.5,-70.77 44.88,0 65.07,30.94 65.07,67.44l0 15.94 -131.57 0zm187.72 182.69l22.98 0 119.47 -391.13 -21.52 0 -120.93 391.13zm419.26 -45c73.16,0 122.8,-42.63 121.73,-114.18l0 -225.29 -28.9 0 0 222.89c1.85,57.09 -34.25,90.42 -91.34,90.42 -50.6,0 -92.27,-26.69 -92.27,-92.81l0 -220.5 -29.51 0 0 227.14c0,80.46 60.43,112.33 120.29,112.33zm192.63 -5.59l27.11 0 0 -139.53c0,-45.93 35.17,-75.01 72.08,-75.01 31.87,0 53.51,18.32 53.51,61.87l0 152.67 27.62 0 0 -165.28c0,-40.78 -23.9,-73.56 -72.62,-73.56 -32.82,0 -64.15,16.88 -80.59,50.05l-0.95 0 0 -44.47 -26.16 0 0 233.26zm248.3 0l27.08 0 0 -233.26 -27.08 0 0 233.26zm0 -289.41l27.08 0 0 -47.8 -27.08 0 0 47.8zm156.93 290.33l27.59 0 85.63 -234.18 -27.61 0 -71.16 199.55 -0.54 0 -68.76 -199.55 -29.48 0 84.3 234.18 0.03 0zm241.17 5.18c30.95,0 63.2,-9.43 84.72,-40.35l-20.6 -13.01c-12.6,15.39 -32.25,29.87 -62.25,29.87 -45,0 -71.16,-26.16 -71.16,-67.45l0 -27.61 158.77 0 0 -34.13c0,-59.99 -37.96,-91.85 -90.01,-91.85 -55.74,0 -97.45,35.58 -97.45,99.82l0 50.59c0,64.12 40.76,94.12 97.98,94.12zm-69.29 -138.2l0 -12.61c0,-37.45 23.9,-70.77 66.5,-70.77 44.88,0 65.07,30.94 65.07,67.44l0 15.94 -131.57 0zm214.95 132.1l27.59 0 0 -129.69c1.46,-52.98 36.53,-81.13 81.53,-81.13 5.56,0 13.53,0 21.5,1.46l0 -25.77c-4.64,-0.92 -10.76,-1.46 -16.32,-1.46 -31.48,0 -66.12,11.3 -86.71,52.97l-0.93 0 0 -49.64 -26.66 0 0 233.26zm246.94 5.59c43.93,0 88.43,-24.83 88.43,-73.96 0,-34.25 -22.98,-51.51 -55.77,-59.07l-34.66 -7.45c-34.12,-7.43 -52.85,-16.86 -52.85,-41.14 0,-23.9 20.6,-41.3 51.52,-41.3 27.61,0 46.88,7.56 61.73,19.65l18.34 -15.39c-17.8,-18.32 -45,-25.77 -77.82,-25.77 -51.49,0 -80.97,29.48 -80.97,67.44 0,32.79 24.82,51.52 66.12,59.48l25.74 5.59c32.28,6.09 50.05,14.98 50.05,43.55 0,29.99 -30.4,46.46 -60.4,46.46 -30.92,0 -52.97,-9.42 -72.62,-28.15l-18.73 15.93c21.52,24.83 54.85,34.13 91.89,34.13zm144.14 -5.59l27.1 0 0 -233.26 -27.1 0 0 233.26zm0 -289.41l27.1 0 0 -47.8 -27.1 0 0 47.8zm171.94 293.66c9.81,0 28.53,-1.46 43.54,-6.12l0 -23.87c-11.29,2.76 -23.51,5.17 -35.7,5.17 -23.78,0 -36.53,-7.97 -36.53,-33.33l0 -156.38 69.31 0 0 -22.44 -69.31 0 0 -73.55 -27.59 0 0 73.55 -43.52 0 0 22.44 43.52 0 0 163.94c0,39.3 27.23,50.59 56.3,50.59l-0.02 0zm101.9 91.73c27.61,0 56.28,-9.29 70.75,-52.84l102.11 -276.4 -27.62 0 -69.31 193.43 -0.54 0 -72.11 -193.43 -30 0 88.56 228.09 -17.4 45.39c-7.43,20.18 -22.82,32.4 -43.54,32.4 -9.82,0 -20.06,-1.46 -29.46,-3.71l0 23.9c10.73,2.25 20.16,3.17 28.53,3.17l0.03 0zm0 0l0 0 0 0z"/>
  </g>
 </g>
</svg>
