<?xml version="1.0" encoding="UTF-8"?>
<!DOCTYPE svg PUBLIC "-//W3C//DTD SVG 1.1//EN" "http://www.w3.org/Graphics/SVG/1.1/DTD/svg11.dtd">
<!-- Creator: CorelDRAW -->
<svg xmlns="http://www.w3.org/2000/svg" xml:space="preserve" width="210mm" height="297mm" version="1.1" style="shape-rendering:geometricPrecision; text-rendering:geometricPrecision; image-rendering:optimizeQuality; fill-rule:evenodd; clip-rule:evenodd"
viewBox="0 0 21000 29700"
 xmlns:xlink="http://www.w3.org/1999/xlink"
 xmlns:xodm="http://www.corel.com/coreldraw/odm/2003">
 <defs>
  <style type="text/css">
   <![CDATA[
    .fil2 {fill:#1A1A18;fill-rule:nonzero}
    .fil0 {fill:#1B3C87;fill-rule:nonzero}
    .fil1 {fill:white;fill-rule:nonzero}
   ]]>
  </style>
 </defs>
 <g id="Layer_x0020_1">
  <metadata id="CorelCorpID_0Corel-Layer"/>
  <path id="path2018" class="fil0" d="M10461.75 13877.01c0,776 -629.04,1405.05 -1405.03,1405.05 -775.99,0 -1405.05,-629.05 -1405.05,-1405.05 0,-775.99 629.06,-1405.05 1405.05,-1405.05 775.99,0 1405.03,629.06 1405.03,1405.05z"/>
  <path id="path2046" class="fil1" d="M9676.56 14329.14l-360.76 0c-0.46,0 -0.99,-0.18 -1.35,-0.46 -41.94,-37.5 -15.99,-84.77 21.05,-84.77l255.83 0 0 -531.46c0,-0.46 0.18,-0.99 0.46,-1.25 37.68,-41.83 84.77,-15.81 84.77,21.13l0 596.81z"/>
  <path id="path2048" class="fil1" d="M9184.83 14019.21l-181.19 301.91c-11.29,18.91 -31.27,29.38 -51.79,29.38 -10.58,0 -21.31,-2.81 -31.07,-8.68 -28.67,-17.16 -37.86,-54.23 -20.7,-82.87l126.34 -210.46 -255.78 0c-21.7,0 -41.83,-11.76 -52.51,-30.64 -10.74,-18.88 -10.48,-42.11 0.82,-60.81l181.18 -301.91c17.09,-28.67 54.13,-37.89 82.87,-20.7 28.56,17.06 37.86,54.2 20.7,82.87l-126.34 210.46 255.65 0c21.8,0 41.85,11.65 52.61,30.53 10.74,18.99 10.38,42.22 -0.82,60.92l0.03 0zm193.35 -585.23l-852.51 0 0 1108.36 852.51 0 0 -1108.36z"/>
  <polygon id="path2050" class="fil1" points="9804.43,13476.53 9463.38,13476.53 9463.38,13774.93 9804.43,13774.93 "/>
  <path id="path2052" class="fil1" d="M9548.66 13561.83c-23.57,0 -42.66,-19.08 -42.66,-42.65l0 -85.22c0,-23.6 19.09,-42.66 42.66,-42.66 23.59,0 42.67,19.06 42.67,42.66l0 85.22c0,23.57 -19.08,42.65 -42.67,42.65z"/>
  <path id="path2054" class="fil1" d="M9719.18 13561.83c-23.59,0 -42.65,-19.08 -42.65,-42.65l0 -85.22c0,-23.6 19.06,-42.66 42.65,-42.66 23.6,0 42.65,19.06 42.65,42.66l0 85.22c0,23.57 -19.05,42.65 -42.65,42.65z"/>
  <path id="path2056" class="fil1" d="M9207.63 13348.68l0 -42.65c0,-23.49 -19.06,-42.55 -42.65,-42.55l-426.26 0c-23.51,0 -42.65,19.06 -42.65,42.55l0 42.65 511.56 0z"/>
  <path id="path2720" class="fil2" d="M7284.23 16220.13l209.36 0 0 -26.28 -179.85 0 0 -133.98 148.01 0 0 -25.74 -148.01 0 0 -121.73 178.93 0 0 -26.15 -208.44 0 0 333.88zm324.07 2.38c10.35,0 23.49,-1.46 34.66,-4.76l0 -20.98c-7.43,0.92 -16.34,2.25 -25.77,2.25 -23.36,0 -33.71,-14.06 -33.71,-32.25l0 -281.06 -27.61 0 0 279.19c0,28.95 11.68,57.61 52.43,57.61zm168.74 3.72c30.94,0 63.19,-9.43 84.71,-40.35l-20.6 -13.01c-12.6,15.39 -32.25,29.87 -62.24,29.87 -45.01,0 -71.16,-26.16 -71.16,-67.45l0 -27.62 158.76 0 0 -34.12c0,-59.99 -37.96,-91.86 -90.01,-91.86 -55.74,0 -97.44,35.58 -97.44,99.83l0 50.59c0,64.12 40.75,94.12 97.98,94.12zm-69.29 -138.2l0 -12.61c0,-37.45 23.9,-70.77 66.5,-70.77 44.87,0 65.06,30.94 65.06,67.44l0 15.94 -131.56 0zm298.32 138.2c55.23,0 88.56,-30.92 88.56,-77.26l0 -6.1 -26.72 0 0 7.97c0,24.28 -17.39,51.9 -61.45,51.9 -46.34,0 -65.45,-28.95 -65.45,-69.71l0 -56.68c0,-40.76 21.49,-71.7 65.04,-71.7 44.08,0 61.86,28.15 61.86,52.05l0 9.3 26.69 0 0 -7.05c0,-46.34 -34.25,-77.26 -89.09,-77.26 -56.15,0 -93.19,36.12 -93.19,96.53l0 54.28c0,60.01 35.71,93.73 93.73,93.73l0.02 0zm215.97 -1.85c9.81,0 28.54,-1.46 43.55,-6.12l0 -23.88c-11.3,2.77 -23.52,5.18 -35.71,5.18 -23.77,0 -36.53,-7.97 -36.53,-33.33l0 -156.38 69.32 0 0 -22.44 -69.32 0 0 -73.55 -27.61 0 0 73.55 -43.52 0 0 22.44 43.52 0 0 163.94c0,39.29 27.23,50.59 56.3,50.59zm89.33 -4.25l27.61 0 0 -129.7c1.46,-52.97 36.53,-81.12 81.54,-81.12 5.56,0 13.52,0 21.49,1.46l0 -25.77c-4.64,-0.92 -10.76,-1.46 -16.32,-1.46 -31.48,0 -66.11,11.29 -86.71,52.97l-0.92 0 0 -49.64 -26.69 0 0 233.26zm172.47 0l27.1 0 0 -233.26 -27.1 0 0 233.26zm0 -289.41l27.1 0 0 -47.8 -27.1 0 0 47.8zm179.34 295.51c55.23,0 88.55,-30.92 88.55,-77.26l0 -6.1 -26.69 0 0 7.97c0,24.28 -17.39,51.9 -61.45,51.9 -46.34,0 -65.45,-28.95 -65.45,-69.71l0 -56.68c0,-40.76 21.49,-71.7 65.04,-71.7 44.09,0 61.86,28.15 61.86,52.05l0 9.3 26.69 0 0 -7.05c0,-46.34 -34.24,-77.26 -89.09,-77.26 -56.15,0 -93.19,36.12 -93.19,96.53l0 54.28c0,60.01 35.71,93.73 93.73,93.73zm334.93 0c55.23,0 88.56,-30.92 88.56,-77.26l0 -6.1 -26.7 0 0 7.97c0,24.28 -17.39,51.9 -61.45,51.9 -46.34,0 -65.45,-28.95 -65.45,-69.71l0 -56.68c0,-40.76 21.49,-71.7 65.04,-71.7 44.09,0 61.86,28.15 61.86,52.05l0 9.3 26.7 0 0 -7.05c0,-46.34 -34.25,-77.26 -89.1,-77.26 -56.15,0 -93.19,36.12 -93.19,96.53l0 54.28c0,60.01 35.71,93.73 93.73,93.73zm141.51 -6.1l27.1 0 0 -139.53c0,-45.93 35.17,-75.01 72.08,-75.01 31.87,0 53.51,18.32 53.51,61.87l0 152.67 27.62 0 0 -165.28c0,-40.78 -23.9,-73.57 -72.62,-73.57 -31.87,0 -63.2,16.88 -79.13,50.06l-1.46 0 0 -145.63 -27.1 0 0 334.42zm312.44 5.17c28.53,0 59.86,-6.09 79.13,-42.21l0.89 0c0,7.04 0.92,29.07 1.85,37.04l27.23 0c-1.46,-10.35 -3.33,-45.01 -3.33,-58.56l0 -113.38c0,-50.56 -40.22,-66.91 -85.64,-66.91 -43.52,0 -86.68,17.27 -86.68,63.74l0 7.04 25.23 0 0 -7.58c0,-30.41 30.92,-40.76 59.99,-40.76 35.2,0 59.48,12.63 59.48,49.26l0 35.97 -68.37 0c-38.37,0 -86.68,17.39 -86.68,69.85 0,43.01 34.66,66.5 76.87,66.5l0.03 0zm7.4 -21.49c-29.48,0 -56.69,-15.01 -56.69,-46.47 0,-39.83 32.79,-47.8 64.66,-47.8l62.78 0 0 26.29c0,40.21 -23.9,67.98 -70.75,67.98zm163.02 16.32l27.62 0 0 -129.7c1.46,-52.97 36.52,-81.12 81.53,-81.12 5.56,0 13.53,0 21.49,1.46l0 -25.77c-4.63,-0.92 -10.75,-1.46 -16.31,-1.46 -31.49,0 -66.12,11.29 -86.71,52.97l-0.93 0 0 -49.64 -26.69 0 0 233.26zm247.86 96.52c64.12,0 98.78,-42.21 98.78,-96.52l0 -233.26 -26.69 0 0 42.21c-12.2,-34.25 -47.78,-47.8 -73.55,-47.8 -41.67,0 -84.84,28.03 -84.84,87.1l0 69.32c0,48.18 30.95,80.05 82.46,80.05 29.61,0 59.99,-13.02 75.93,-46.34l0 51.51c0,44.06 -27.21,71.16 -70.22,71.16 -24.82,0 -44.08,-9.3 -59.09,-28.94l-24.82 11.14c17.8,27.61 48.72,40.37 82.04,40.37zm4.67 -121.34c-40.78,0 -62.81,-25.23 -62.81,-57.61l0 -71.17c0,-42.62 31.86,-61.35 62.27,-61.35 32.79,0 67.96,24.83 67.96,69.71l0 44.62c0,52.44 -34.63,75.8 -67.42,75.8zm163.94 24.82l27.1 0 0 -233.26 -27.1 0 0 233.26zm0 -289.41l27.1 0 0 -47.8 -27.1 0 0 47.8zm97.44 289.41l27.11 0 0 -139.53c0,-45.93 35.17,-75.01 72.08,-75.01 31.87,0 53.51,18.32 53.51,61.87l0 152.67 27.62 0 0 -165.28c0,-40.78 -23.9,-73.57 -72.63,-73.57 -32.81,0 -64.14,16.88 -80.58,50.06l-0.95 0 0 -44.47 -26.16 0 0 233.26zm323.72 96.52c64.11,0 98.77,-42.21 98.77,-96.52l0 -233.26 -26.72 0 0 42.21c-12.19,-34.25 -47.77,-47.8 -73.54,-47.8 -41.68,0 -84.84,28.03 -84.84,87.1l0 69.32c0,48.18 30.94,80.05 82.46,80.05 29.61,0 59.99,-13.02 75.92,-46.34l0 51.51c0,44.06 -27.2,71.16 -70.21,71.16 -24.82,0 -44.08,-9.3 -59.1,-28.94l-24.82 11.14c17.81,27.61 48.72,40.37 82.05,40.37l0.03 0zm4.66 -121.34c-40.78,0 -62.81,-25.23 -62.81,-57.61l0 -71.17c0,-42.62 31.86,-61.35 62.27,-61.35 32.79,0 67.96,24.83 67.96,69.71l0 44.62c0,52.44 -34.63,75.8 -67.42,75.8z"/>
  <path id="path2722" class="fil2" d="M8403.07 16862.66c70.24,0 114.84,-38.78 114.84,-94.52 0,-51.13 -27.74,-75.42 -67.04,-86.71l-65.58 -19.24c-43.95,-13.01 -57.63,-33.74 -57.63,-61.35 0,-39.81 37.96,-58.54 75,-58.54 39.84,0 67.45,16.86 82.85,45.93l25.36 -10.34c-17.78,-42.63 -58.54,-60.82 -108.72,-60.82 -58.94,0 -103.95,34.12 -103.95,86.56 0,44.09 24.41,69.83 71.67,83.92l65.61 19.24c30.92,9.83 53.36,25.23 53.36,64.52 0,40.76 -36.51,65.58 -83.9,65.58 -48.21,0 -82.84,-23.36 -96.39,-62.66l-27.23 9.84c14.47,50.57 60.94,78.59 121.75,78.59zm244.56 -1.33c9.81,0 28.54,-1.46 43.55,-6.12l0 -23.88c-11.3,2.77 -23.52,5.18 -35.71,5.18 -23.77,0 -36.53,-7.97 -36.53,-33.33l0 -156.39 69.32 0 0 -22.44 -69.32 0 0 -73.54 -27.59 0 0 73.54 -43.55 0 0 22.44 43.55 0 0 163.95c0,39.29 27.23,50.59 56.31,50.59l-0.03 0zm154.93 0.92c28.53,0 59.86,-6.1 79.13,-42.21l0.92 0c0,7.04 0.92,29.07 1.84,37.04l27.26 0c-1.46,-10.35 -3.33,-45.01 -3.33,-58.56l0 -113.38c0,-50.57 -40.22,-66.91 -85.64,-66.91 -43.52,0 -86.68,17.27 -86.68,63.73l0 7.05 25.23 0 0 -7.58c0,-30.41 30.92,-40.76 59.99,-40.76 35.2,0 59.48,12.63 59.48,49.26l0 35.97 -68.39 0c-38.37,0 -86.69,17.39 -86.69,69.85 0,43.01 34.66,66.5 76.88,66.5zm7.43 -21.49c-29.49,0 -56.69,-15.01 -56.69,-46.47 0,-39.83 32.79,-47.8 64.65,-47.8l62.79 0 0 26.28c0,40.22 -23.9,67.99 -70.75,67.99zm238.97 20.57c9.81,0 28.54,-1.46 43.55,-6.12l0 -23.88c-11.3,2.77 -23.52,5.18 -35.71,5.18 -23.77,0 -36.53,-7.97 -36.53,-33.33l0 -156.39 69.32 0 0 -22.44 -69.32 0 0 -73.54 -27.61 0 0 73.54 -43.53 0 0 22.44 43.53 0 0 163.95c0,39.29 27.23,50.59 56.3,50.59zm90.78 -4.25l27.13 0 0 -233.26 -27.13 0 0 233.26zm0 -289.42l27.13 0 0 -47.8 -27.13 0 0 47.8zm181.75 295.51c53.77,0 93.6,-31.84 93.6,-92.27l0 -60.4c0,-59.07 -37.04,-91.86 -94.52,-91.86 -53.49,0 -94.65,31.46 -94.65,92.27l0 62.79c0,59.09 38.37,89.47 95.57,89.47zm0 -23.49c-45.93,0 -67.96,-27.07 -67.96,-66.91l0 -62.78c0,-41.7 22.95,-67.86 67.04,-67.86 45.8,0 66.91,28.03 66.91,65.99l0 63.19c0,44.6 -22.03,68.37 -65.99,68.37zm152.67 17.4l27.11 0 0 -139.53c0,-45.93 35.17,-75.01 72.08,-75.01 31.87,0 53.51,18.32 53.51,61.86l0 152.68 27.62 0 0 -165.28c0,-40.78 -23.9,-73.57 -72.63,-73.57 -32.81,0 -64.14,16.88 -80.58,50.06l-0.95 0 0 -44.47 -26.16 0 0 233.26z"/>
 </g>
</svg>
