<?xml version="1.0" encoding="UTF-8"?>
<!DOCTYPE svg PUBLIC "-//W3C//DTD SVG 1.1//EN" "http://www.w3.org/Graphics/SVG/1.1/DTD/svg11.dtd">
<!-- Creator: CorelDRAW -->
<svg xmlns="http://www.w3.org/2000/svg" xml:space="preserve" width="210mm" height="297mm" version="1.1" style="shape-rendering:geometricPrecision; text-rendering:geometricPrecision; image-rendering:optimizeQuality; fill-rule:evenodd; clip-rule:evenodd"
viewBox="0 0 21000 29700"
 xmlns:xlink="http://www.w3.org/1999/xlink"
 xmlns:xodm="http://www.corel.com/coreldraw/odm/2003">
 <defs>
  <style type="text/css">
   <![CDATA[
    .fil2 {fill:#1A1A18;fill-rule:nonzero}
    .fil0 {fill:#1B3C87;fill-rule:nonzero}
    .fil1 {fill:white;fill-rule:nonzero}
   ]]>
  </style>
 </defs>
 <g id="Layer_x0020_1">
  <metadata id="CorelCorpID_0Corel-Layer"/>
  <path id="path2030" class="fil0" d="M12351.5 14601.74c0,776 -629.06,1405.05 -1405.05,1405.05 -775.99,0 -1405.05,-629.05 -1405.05,-1405.05 0,-775.99 629.06,-1405.05 1405.05,-1405.05 775.99,0 1405.05,629.06 1405.05,1405.05z"/>
  <path id="path2032" class="fil1" d="M10943.3 14447.51c123.24,0 223.2,-99.93 223.2,-223.2 0,-123.26 -99.96,-223.21 -223.2,-223.21 -123.26,0 -223.22,99.95 -223.22,223.21 0.08,123.17 99.96,223.02 223.22,223.2zm55.77 811.52l0 192.94c0,30.82 -24.93,55.85 -55.74,55.85 -30.82,0 -55.87,-25.03 -55.87,-55.85l0 -192.94 0 -353.35 0 -186.87c-69.22,-18.08 -125.52,-68.24 -151.55,-134.84 -121.26,19.34 -235.21,-63.25 -254.55,-184.52 -9.94,-62.45 7.05,-126.08 46.8,-175.14 -77.36,-95.42 -62.7,-235.41 32.72,-312.77 49.08,-39.76 112.68,-56.84 175.03,-46.9 43.93,-114.48 172.35,-171.78 286.83,-127.85 58.94,22.56 105.38,69.03 127.98,127.85 121.26,-19.34 235.23,63.27 254.57,184.54 10.02,62.35 -7.07,126.05 -46.83,175.13 57.67,71.58 65.61,171.25 19.98,251.04l0 0c-46.18,79.8 -136.74,122.99 -227.72,108.62 -26.03,66.6 -82.44,116.76 -151.65,134.84l0 186.97 0 353.25zm-55.77 -923.11c-61.63,0 -111.61,-49.97 -111.61,-111.61 0,-61.63 49.98,-111.6 111.61,-111.6 61.63,0 111.59,49.97 111.59,111.6 -0.08,61.64 -49.96,111.51 -111.59,111.61z"/>
  <path id="path2034" class="fil1" d="M10898.22 15233.39c24.92,-303.89 -111.54,-467.73 -453.31,-453.28 -14.45,341.77 149.4,478.23 453.31,453.28z"/>
  <path id="path2036" class="fil1" d="M10992.13 15233.39c-24.95,-303.89 111.5,-467.73 453.28,-453.28 14.47,341.77 -149.37,478.23 -453.28,453.28z"/>
  <path id="path2718" class="fil2" d="M10397.7 16949.68c70.75,0 117.5,-37.04 117.5,-96.5l0 -78.21 -121.75 0 0 26.7 93.73 0 0 47.26c0,45.52 -34.25,74.46 -89.48,74.46 -56.69,0 -95.6,-34.63 -95.6,-88.94l0 -114.3c0,-54.84 39.3,-90.42 93.22,-90.42 55.74,0 90.01,28.15 90.01,73.54l0 13.68 28 0 0 -18.31c0,-57.1 -49.13,-95.6 -116.55,-95.6 -72.24,0 -124.14,48.34 -124.14,116.71l0 119.34c0,72.62 54.82,110.59 125.06,110.59zm249.61 -0.93c28.53,0 59.86,-6.09 79.12,-42.21l0.93 0c0,7.04 0.92,29.07 1.84,37.04l27.23 0c-1.46,-10.35 -3.33,-45.01 -3.33,-58.56l0 -113.38c0,-50.56 -40.22,-66.91 -85.63,-66.91 -43.53,0 -86.69,17.27 -86.69,63.74l0 7.04 25.26 0 0 -7.58c0,-30.41 30.92,-40.76 59.99,-40.76 35.2,0 59.48,12.63 59.48,49.26l0 35.97 -68.39 0c-38.38,0 -86.69,17.39 -86.69,69.85 0,43.01 34.66,66.5 76.88,66.5zm7.42 -21.49c-29.48,0 -56.68,-15.01 -56.68,-46.47 0,-39.83 32.78,-47.8 64.65,-47.8l62.79 0 0 26.29c0,40.21 -23.9,67.98 -70.76,67.98zm163.03 16.32l27.64 0 0 -129.7c1.46,-52.97 36.52,-81.12 81.53,-81.12 5.56,0 13.53,0 21.49,1.46l0 -25.77c-4.63,-0.92 -10.75,-1.46 -16.31,-1.46 -31.49,0 -66.12,11.29 -86.71,52.97l-0.95 0 0 -49.64 -26.69 0 0 233.26zm243.61 6.1c25.77,0 58.94,-14.6 75.82,-52.03l0.92 0 0 45.93 26.72 0 0 -333.5 -27.64 0 0 142.45 -0.95 0c-9.81,-30.53 -40.75,-47.8 -70.62,-47.8 -44.06,0 -86.69,25.77 -86.69,88.56l0 76.75c0,48.72 32.79,79.64 82.44,79.64zm7.96 -23.88c-39.42,0 -62.78,-25.36 -62.78,-57.63l0 -78.72c0,-42.09 32.25,-61.35 62.27,-61.35 37.04,0 68.88,28.56 68.88,73.57l0 45.93c0,48.72 -35.58,78.2 -68.37,78.2zm252.53 23.88c30.94,0 63.19,-9.43 84.71,-40.35l-20.59 -13.01c-12.61,15.39 -32.26,29.87 -62.25,29.87 -45.01,0 -71.16,-26.16 -71.16,-67.45l0 -27.62 158.77 0 0 -34.12c0,-59.99 -37.97,-91.86 -90.02,-91.86 -55.74,0 -97.44,35.58 -97.44,99.83l0 50.59c0,64.12 40.75,94.12 97.98,94.12zm-69.29 -138.2l0 -12.61c0,-37.45 23.9,-70.77 66.5,-70.77 44.88,0 65.06,30.94 65.06,67.44l0 15.94 -131.56 0zm216.38 132.1l27.1 0 0 -139.53c0,-45.93 35.17,-75.01 72.08,-75.01 31.87,0 53.51,18.32 53.51,61.87l0 152.67 27.62 0 0 -165.28c0,-40.78 -23.9,-73.57 -72.62,-73.57 -32.82,0 -64.15,16.89 -80.59,50.06l-0.95 0 0 -44.47 -26.15 0 0 233.26z"/>
 </g>
</svg>
