<?xml version="1.0" encoding="UTF-8"?>
<!DOCTYPE svg PUBLIC "-//W3C//DTD SVG 1.1//EN" "http://www.w3.org/Graphics/SVG/1.1/DTD/svg11.dtd">
<!-- Creator: CorelDRAW -->
<svg xmlns="http://www.w3.org/2000/svg" xml:space="preserve" width="210mm" height="297mm" version="1.1" style="shape-rendering:geometricPrecision; text-rendering:geometricPrecision; image-rendering:optimizeQuality; fill-rule:evenodd; clip-rule:evenodd"
viewBox="0 0 21000 29700"
 xmlns:xlink="http://www.w3.org/1999/xlink"
 xmlns:xodm="http://www.corel.com/coreldraw/odm/2003">
 <defs>
  <style type="text/css">
   <![CDATA[
    .fil2 {fill:#1A1A18;fill-rule:nonzero}
    .fil0 {fill:#1B3C87;fill-rule:nonzero}
    .fil1 {fill:white;fill-rule:nonzero}
   ]]>
  </style>
 </defs>
 <g id="Layer_x0020_1">
  <metadata id="CorelCorpID_0Corel-Layer"/>
  <path id="path1924" class="fil0" d="M11292.59 14074.55c0,776 -629.06,1405.05 -1405.05,1405.05 -775.99,0 -1405.05,-629.05 -1405.05,-1405.05 0,-775.99 629.06,-1405.05 1405.05,-1405.05 775.99,0 1405.05,629.06 1405.05,1405.05z"/>
  <path id="path2004" class="fil1" d="M9575.79 13887.25c0,-127.6 77.08,-237.49 187.08,-285.65 0,-0.1 0,-0.1 0,-0.18 24.02,193.48 33.89,386.96 22.59,580.44 -121.91,-42.39 -209.67,-158.41 -209.67,-294.61zm436.3 -285.65c110.07,48.08 187.15,158.05 187.15,285.65 0,136.2 -87.84,252.32 -209.75,294.61 -11.29,-193.48 -1.33,-386.88 22.6,-580.36 0,0 0,0 0,0.1zm177.95 -40.75l0 0c241,151.18 257.19,496.39 31.43,669.45l-289.97 222.4 2.25 -45.47 72.11 -48.16c-4.25,-33.71 -7.86,-67.42 -10.83,-101.21 160.56,-46.64 278.32,-195.11 278.32,-370.61 0,-165.38 -104.65,-306.88 -251.15,-361.55 2.46,-17.55 5.08,-35.07 7.79,-52.51l-142.5 -169.27 -142.53 169.27c2.72,17.44 5.33,34.96 7.86,52.51 -146.57,54.74 -251.21,196.17 -251.21,361.55 0,175.5 117.75,323.97 278.34,370.61 -2.89,33.79 -6.5,67.5 -10.86,101.29l72.21 48.08 2.26 45.55 -290.08 -222.48c-225.73,-173.06 -209.47,-518.27 31.53,-669.45 -368.44,90.63 -479.23,560.56 -190.12,806.27l196.55 167.09c16.99,14.45 24.03,37.58 17.7,59 -0.1,0.35 -0.18,0.71 -0.36,1.1 -3.43,11.47 9.84,20.59 19.42,13.45l133.39 -99.39 51.43 35.22 -165.3 126.7c-15.62,12.03 -26.82,29.2 -29.89,48.61 -9.15,58.85 55.92,97.96 106.89,78.19 30.54,-11.94 38.15,-39.94 38.15,-64.99 0,-32.36 15.26,-62.71 41.93,-80.95l46.98 -32.17 2.43 50.69c0,21.95 -7.48,43.19 -21.41,60.17 -11.66,14.3 -17.88,33.18 -15.35,53.59 3.87,32 29.9,57.66 61.89,61.28 42.65,4.79 78.8,-28.46 78.8,-70.14 0,-16.52 -5.69,-31.71 -15.17,-43.73 -13.83,-17.52 -22.23,-38.86 -22.23,-61.17l2.53 -50.69 46.88 32.17c26.77,18.24 41.94,48.59 41.94,80.95 0,25.05 7.6,53.05 38.24,64.99 50.87,19.77 116.02,-19.34 106.8,-78.19 -3.05,-19.41 -14.27,-36.58 -29.82,-48.61l-165.38 -126.78 51.44 -35.14 133.38 99.39c9.58,7.14 22.85,-1.98 19.42,-13.45 -0.08,-0.36 -0.18,-0.72 -0.36,-1.1 -6.33,-21.42 0.72,-44.55 17.8,-59l196.56 -167.09c289.07,-245.71 178.28,-715.64 -190.13,-806.27z"/>
  <path id="path2692" class="fil2" d="M8861.02 16423.05c70.75,0 117.5,-37.04 117.5,-96.5l0 -78.2 -121.75 0 0 26.69 93.73 0 0 47.26c0,45.52 -34.25,74.47 -89.48,74.47 -56.69,0 -95.6,-34.64 -95.6,-88.94l0 -114.3c0,-54.85 39.3,-90.43 93.22,-90.43 55.74,0 90.01,28.16 90.01,73.55l0 13.68 28 0 0 -18.32c0,-57.1 -49.13,-95.6 -116.55,-95.6 -72.24,0 -124.14,48.34 -124.14,116.71l0 119.34c0,72.63 54.82,110.59 125.06,110.59zm255.7 -0.54c32.79,0 64.12,-16.34 80.59,-50.05l0.95 0 0 44.47 26.13 0 0 -233.26 -27.05 0 0 139.53c0,45.93 -35.17,75 -71.7,75 -32.38,0 -53.9,-18.31 -53.9,-61.86l0 -152.67 -27.61 0 0 165.27c0,40.78 23.9,73.57 72.62,73.57l-0.03 0zm175.63 -5.58l27.61 0 0 -129.7c1.46,-52.97 36.53,-81.12 81.54,-81.12 5.56,0 13.52,0 21.49,1.46l0 -25.77c-4.64,-0.93 -10.76,-1.46 -16.32,-1.46 -31.48,0 -66.11,11.29 -86.71,52.97l-0.92 0 0 -49.64 -26.69 0 0 233.26zm242.71 5.58c32.79,0 64.12,-16.34 80.59,-50.05l0.9 0 0 44.47 26.18 0 0 -233.26 -27.11 0 0 139.53c0,45.93 -35.17,75 -71.7,75 -32.37,0 -53.89,-18.31 -53.89,-61.86l0 -152.67 -27.62 0 0 165.27c0,40.78 23.9,73.57 72.63,73.57l0.02 0zm248.22 0.54c25.77,0 58.94,-14.6 75.83,-52.03l0.92 0 0 45.93 26.69 0 0 -333.49 -27.59 0 0 142.45 -0.97 0c-9.81,-30.54 -40.76,-47.8 -70.63,-47.8 -44.06,0 -86.68,25.77 -86.68,88.55l0 76.75c0,48.72 32.79,79.64 82.43,79.64zm7.97 -23.87c-39.42,0 -62.79,-25.36 -62.79,-57.64l0 -78.72c0,-42.09 32.25,-61.35 62.28,-61.35 37.04,0 68.88,28.56 68.88,73.57l0 45.93c0,48.72 -35.58,78.21 -68.37,78.21zm216.02 18.7l27.61 0 61.33 -198.61 0.92 0 59.48 198.61 27.62 0 75.41 -234.19 -28.54 0 -60.4 198.6 -0.54 0 -59.48 -198.6 -26.69 0 -61.86 199.01 -0.36 0 -58.56 -199.01 -29.07 0 73.16 234.19 -0.03 0zm362.98 4.25c28.54,0 59.87,-6.1 79.13,-42.22l0.92 0c0,7.05 0.93,29.08 1.85,37.04l27.23 0c-1.46,-10.35 -3.33,-45 -3.33,-58.56l0 -113.37c0,-50.57 -40.22,-66.91 -85.64,-66.91 -43.52,0 -86.68,17.26 -86.68,63.73l0 7.05 25.23 0 0 -7.59c0,-30.4 30.92,-40.75 59.99,-40.75 35.2,0 59.48,12.63 59.48,49.26l0 35.96 -68.37 0c-38.37,0 -86.68,17.4 -86.68,69.86 0,43.01 34.66,66.5 76.87,66.5zm7.43 -21.49c-29.48,0 -56.69,-15.02 -56.69,-46.47 0,-39.84 32.79,-47.8 64.66,-47.8l62.78 0 0 26.28c0,40.22 -23.9,67.99 -70.75,67.99zm163.02 16.31l27.62 0 0 -129.69c1.46,-52.98 36.53,-81.13 81.53,-81.13 5.56,0 13.53,0 21.5,1.46l0 -25.77c-4.64,-0.92 -10.76,-1.46 -16.32,-1.46 -31.48,0 -66.12,11.3 -86.71,52.98l-0.9 0 0 -49.65 -26.72 0 0 233.26zm230.5 5.18c28.53,0 59.86,-6.1 79.13,-42.22l0.92 0c0,7.05 0.92,29.08 1.84,37.04l27.26 0c-1.46,-10.35 -3.33,-45 -3.33,-58.56l0 -113.37c0,-50.57 -40.22,-66.91 -85.64,-66.91 -43.52,0 -86.68,17.26 -86.68,63.73l0 7.05 25.23 0 0 -7.59c0,-30.4 30.92,-40.75 59.99,-40.75 35.2,0 59.48,12.63 59.48,49.26l0 35.96 -68.39 0c-38.37,0 -86.69,17.4 -86.69,69.86 0,43.01 34.66,66.5 76.88,66.5zm7.43 -21.49c-29.49,0 -56.69,-15.02 -56.69,-46.47 0,-39.84 32.79,-47.8 64.65,-47.8l62.79 0 0 26.28c0,40.22 -23.9,67.99 -70.75,67.99z"/>
 </g>
</svg>
