<?xml version="1.0" encoding="UTF-8"?>
<!DOCTYPE svg PUBLIC "-//W3C//DTD SVG 1.1//EN" "http://www.w3.org/Graphics/SVG/1.1/DTD/svg11.dtd">
<!-- Creator: CorelDRAW -->
<svg xmlns="http://www.w3.org/2000/svg" xml:space="preserve" width="210mm" height="297mm" version="1.1" style="shape-rendering:geometricPrecision; text-rendering:geometricPrecision; image-rendering:optimizeQuality; fill-rule:evenodd; clip-rule:evenodd"
viewBox="0 0 21000 29700"
 xmlns:xlink="http://www.w3.org/1999/xlink"
 xmlns:xodm="http://www.corel.com/coreldraw/odm/2003">
 <defs>
  <style type="text/css">
   <![CDATA[
    .fil2 {fill:#1A1A18;fill-rule:nonzero}
    .fil0 {fill:#1B3C87;fill-rule:nonzero}
    .fil1 {fill:white;fill-rule:nonzero}
   ]]>
  </style>
 </defs>
 <g id="Layer_x0020_1">
  <metadata id="CorelCorpID_0Corel-Layer"/>
  <path id="path1958" class="fil0" d="M11082.15 14483.09c-2.18,774.12 -630.36,1401 -1405,1401 -775.99,0 -1405.02,-629.03 -1405.02,-1405.02 0,-775.99 629.03,-1405.05 1405.02,-1405.05 774.64,0 1402.82,626.9 1405,1401.03l0 8.04z"/>
  <polygon id="path1960" class="fil1" points="10291.87,14303.42 9852.78,14303.42 9852.78,13864.33 9501.55,13864.33 9501.55,14303.42 9062.52,14303.42 9062.52,14654.69 9501.55,14654.69 9501.55,15093.78 9852.78,15093.78 9852.78,14654.69 10291.87,14654.69 "/>
  <path id="path2676" class="fil2" d="M8931.31 16820.88l29.49 0 0 -160.26 181.2 0 0 160.26 29.62 0 0 -333.88 -29.62 0 0 147.88 -181.2 0 0 -147.88 -29.49 0 0 333.88zm398.15 6.09c53.77,0 93.61,-31.84 93.61,-92.27l0 -60.4c0,-59.07 -37.05,-91.86 -94.53,-91.86 -53.48,0 -94.65,31.46 -94.65,92.27l0 62.79c0,59.09 38.37,89.47 95.57,89.47zm0 -23.49c-45.93,0 -67.96,-27.07 -67.96,-66.91l0 -62.78c0,-41.7 22.96,-67.86 67.04,-67.86 45.8,0 66.91,28.03 66.91,65.99l0 63.19c0,44.6 -22.03,68.37 -65.99,68.37zm227.17 22.98c43.93,0 88.43,-24.82 88.43,-73.95 0,-34.25 -22.98,-51.52 -55.77,-59.07l-34.66 -7.46c-34.12,-7.43 -52.85,-16.85 -52.85,-41.14 0,-23.9 20.6,-41.29 51.52,-41.29 27.61,0 46.88,7.56 61.73,19.65l18.34 -15.4c-17.8,-18.31 -45,-25.77 -77.82,-25.77 -51.49,0 -80.97,29.49 -80.97,67.45 0,32.79 24.82,51.51 66.12,59.48l25.74 5.58c32.28,6.1 50.05,14.99 50.05,43.55 0,30 -30.4,46.47 -60.4,46.47 -30.92,0 -52.97,-9.43 -72.62,-28.15l-18.73 15.93c21.52,24.82 54.85,34.12 91.89,34.12zm144.17 85.23l27.1 0 0 -132.49 1.46 0c9.81,30.38 40.22,47.77 70.62,47.77 43.68,0 86.69,-25.74 86.69,-88.53l0 -76.74c0,-48.72 -33.18,-79.67 -82.44,-79.67 -26.69,0 -59.89,14.09 -76.33,47.26l-0.95 0 0 -41.67 -26.15 0 0 324.07zm95.47 -108.21c-36.5,0 -68.37,-28.53 -68.37,-73.41l0 -47.8c0,-48.72 35.58,-76.34 67.96,-76.34 39.29,0 62.66,25.23 62.66,57.64l0 78.59c0,42.21 -31.72,61.32 -62.25,61.32zm149.47 17.4l27.1 0 0 -233.26 -27.1 0 0 233.26zm0 -289.41l27.1 0 0 -47.8 -27.1 0 0 47.8zm171.94 293.66c9.81,0 28.53,-1.46 43.54,-6.12l0 -23.88c-11.29,2.77 -23.51,5.18 -35.71,5.18 -23.77,0 -36.53,-7.97 -36.53,-33.33l0 -156.39 69.32 0 0 -22.44 -69.32 0 0 -73.54 -27.61 0 0 73.54 -43.5 0 0 22.44 43.5 0 0 163.95c0,39.29 27.23,50.59 56.31,50.59zm154.92 0.92c28.54,0 59.87,-6.09 79.13,-42.21l0.92 0c0,7.04 0.92,29.07 1.85,37.04l27.23 0c-1.46,-10.35 -3.33,-45.01 -3.33,-58.56l0 -113.38c0,-50.56 -40.22,-66.91 -85.64,-66.91 -43.52,0 -86.68,17.27 -86.68,63.74l0 7.04 25.23 0 0 -7.58c0,-30.41 30.92,-40.76 59.99,-40.76 35.2,0 59.48,12.63 59.48,49.26l0 35.97 -68.37 0c-38.37,0 -86.68,17.39 -86.68,69.85 0,43.01 34.66,66.5 76.87,66.5zm7.43 -21.49c-29.48,0 -56.69,-15.01 -56.69,-46.47 0,-39.83 32.79,-47.8 64.66,-47.8l62.81 0 0 26.28c0,40.22 -23.9,67.99 -70.75,67.99l-0.03 0zm217.33 18.7c10.35,0 23.49,-1.46 34.66,-4.76l0 -20.98c-7.43,0.92 -16.35,2.25 -25.77,2.25 -23.36,0 -33.71,-14.06 -33.71,-32.25l0 -281.06 -27.62 0 0 279.19c0,28.95 11.68,57.61 52.44,57.61z"/>
 </g>
</svg>
