<?xml version="1.0" encoding="UTF-8"?>
<!DOCTYPE svg PUBLIC "-//W3C//DTD SVG 1.1//EN" "http://www.w3.org/Graphics/SVG/1.1/DTD/svg11.dtd">
<!-- Creator: CorelDRAW -->
<svg xmlns="http://www.w3.org/2000/svg" xml:space="preserve" width="210mm" height="297mm" version="1.1" style="shape-rendering:geometricPrecision; text-rendering:geometricPrecision; image-rendering:optimizeQuality; fill-rule:evenodd; clip-rule:evenodd"
viewBox="0 0 21000 29700"
 xmlns:xlink="http://www.w3.org/1999/xlink"
 xmlns:xodm="http://www.corel.com/coreldraw/odm/2003">
 <defs>
  <style type="text/css">
   <![CDATA[
    .fil2 {fill:#1A1A18;fill-rule:nonzero}
    .fil0 {fill:#1B3C87;fill-rule:nonzero}
    .fil1 {fill:white;fill-rule:nonzero}
   ]]>
  </style>
 </defs>
 <g id="Layer_x0020_1">
  <metadata id="CorelCorpID_0Corel-Layer"/>
  <path id="path2006" class="fil0" d="M11731.98 14501.81c0,775.99 -629.06,1405.05 -1405.05,1405.05 -775.99,0 -1405.05,-629.06 -1405.05,-1405.05 0,-776 629.06,-1405.05 1405.05,-1405.05 775.99,0 1405.05,629.05 1405.05,1405.05z"/>
  <path id="path2008" class="fil1" d="M9593.3 14779.41l1467.23 0 0 -237.95 -1467.23 0 0 237.95zm1546.48 198.27l158.59 0 0 -555.13 -158.59 0 0 555.13zm-931.76 -793.08c-142.86,0 -257.83,114.94 -257.83,257.73 0,6.6 0.18,13.29 0.64,19.8l1109.08 0c0.46,-6.51 0.64,-13.2 0.64,-19.8 0,-142.79 -114.94,-257.73 -257.72,-257.73l-594.81 0zm-475.9 0c-76.64,0 -138.82,62.09 -138.82,138.71 0,76.72 62.18,138.82 138.82,138.82 76.62,0 138.81,-62.1 138.81,-138.82 0,-76.62 -62.19,-138.71 -138.81,-138.71zm-376.74 793.08l158.59 0 0 -951.67 -158.59 0 0 951.67z"/>
  <g>
   <path id="path2678" class="fil2" d="M9581.06 16868.46l29.48 0 0 -160.25 181.21 0 0 160.25 29.62 0 0 -333.88 -29.62 0 0 147.88 -181.21 0 0 -147.88 -29.48 0 0 333.88zm398.15 6.1c53.77,0 93.6,-31.84 93.6,-92.27l0 -60.4c0,-59.07 -37.04,-91.86 -94.52,-91.86 -53.49,0 -94.65,31.45 -94.65,92.27l0 62.78c0,59.1 38.37,89.48 95.57,89.48zm0 -23.49c-45.93,0 -67.96,-27.08 -67.96,-66.91l0 -62.78c0,-41.71 22.96,-67.86 67.04,-67.86 45.8,0 66.91,28.02 66.91,65.99l0 63.19c0,44.6 -22.03,68.37 -65.99,68.37zm227.17 21.65c9.81,0 28.53,-1.46 43.55,-6.13l0 -23.87c-11.3,2.77 -23.52,5.17 -35.71,5.17 -23.78,0 -36.53,-7.96 -36.53,-33.32l0 -156.39 69.32 0 0 -22.44 -69.32 0 0 -73.54 -27.62 0 0 73.54 -43.52 0 0 22.44 43.52 0 0 163.94c0,39.3 27.23,50.6 56.31,50.6zm176.95 1.84c30.95,0 63.2,-9.43 84.72,-40.35l-20.6 -13.01c-12.6,15.4 -32.25,29.87 -62.25,29.87 -45,0 -71.16,-26.15 -71.16,-67.45l0 -27.61 158.77 0 0 -34.12c0,-60 -37.96,-91.86 -90.01,-91.86 -55.74,0 -97.45,35.58 -97.45,99.82l0 50.6c0,64.11 40.76,94.11 97.98,94.11zm-69.29 -138.2l0 -12.6c0,-37.45 23.9,-70.78 66.5,-70.78 44.88,0 65.07,30.94 65.07,67.45l0 15.93 -131.57 0zm269.23 134.49c10.35,0 23.49,-1.46 34.66,-4.77l0 -20.98c-7.43,0.92 -16.35,2.26 -25.77,2.26 -23.36,0 -33.71,-14.07 -33.71,-32.25l0 -281.07 -27.59 0 0 279.2c0,28.94 11.68,57.61 52.43,57.61l-0.02 0zm0 0l0 0 0 0z"/>
  </g>
 </g>
</svg>
