<?xml version="1.0" encoding="UTF-8"?>
<!DOCTYPE svg PUBLIC "-//W3C//DTD SVG 1.1//EN" "http://www.w3.org/Graphics/SVG/1.1/DTD/svg11.dtd">
<!-- Creator: CorelDRAW -->
<svg xmlns="http://www.w3.org/2000/svg" xml:space="preserve" width="210mm" height="297mm" version="1.1" style="shape-rendering:geometricPrecision; text-rendering:geometricPrecision; image-rendering:optimizeQuality; fill-rule:evenodd; clip-rule:evenodd"
viewBox="0 0 21000 29700"
 xmlns:xlink="http://www.w3.org/1999/xlink"
 xmlns:xodm="http://www.corel.com/coreldraw/odm/2003">
 <defs>
  <style type="text/css">
   <![CDATA[
    .fil0 {fill:#193E88;fill-rule:nonzero}
    .fil2 {fill:#1A1A18;fill-rule:nonzero}
    .fil1 {fill:white;fill-rule:nonzero}
   ]]>
  </style>
 </defs>
 <g id="Layer_x0020_1">
  <metadata id="CorelCorpID_0Corel-Layer"/>
  <path id="path1926" class="fil0" d="M11447.51 14575.47c0,775.99 -629.06,1405.05 -1405.05,1405.05 -775.99,0 -1405.05,-629.06 -1405.05,-1405.05 0,-775.99 629.06,-1405.05 1405.05,-1405.05 775.99,0 1405.05,629.06 1405.05,1405.05z"/>
  <path id="path2038" class="fil1" d="M10042.44 14754.09c-98.5,0 -178.57,80.15 -178.57,178.65 0,98.42 80.07,178.57 178.57,178.57 98.49,0 178.67,-80.15 178.67,-178.57 0,-98.5 -80.18,-178.65 -178.67,-178.65z"/>
  <path id="path2040" class="fil1" d="M10042.44 15151.01c-120.37,0 -218.33,-97.95 -218.33,-218.32 0,-120.37 97.96,-218.33 218.33,-218.33 120.37,0 218.32,97.96 218.32,218.33 0,120.37 -97.95,218.32 -218.32,218.32zm494.42 -933.25c-25.13,-34.14 -82.62,-34.68 -128.34,-1.07 -11.55,8.5 -20.78,18.62 -28.82,28.74 -10.3,12.83 -17.91,28.1 -19.34,45.37 -1.08,7.04 -0.36,284.64 -0.36,284.64l0 39.68c0,11.02 -8.94,19.88 -19.88,19.88 -10.94,0 -19.8,-8.86 -19.8,-19.88l0 -39.68 0 -297.66 0 -277.88c0,-43.73 -35.61,-79.34 -79.43,-79.34 -43.73,0 -79.34,35.61 -79.34,79.34l0 456.45 0 119.09c0,10.94 -8.94,19.91 -19.88,19.91 -10.93,0 -19.87,-8.97 -19.87,-19.91l0 -119.09 0 -456.45 0 -119.02c0,-43.82 -35.61,-79.43 -79.36,-79.43 -43.73,0 -79.34,35.61 -79.34,79.43l0 119.02 0 456.45 0 119.09c0,11.04 -8.94,19.91 -19.87,19.91 -10.94,0 -19.88,-8.87 -19.88,-19.91l0 -119.09 0 -456.45c0,-43.73 -35.61,-79.34 -79.36,-79.34 -43.73,0 -79.34,35.61 -79.34,79.34l0 158.77 0 416.77 0 39.68c0,11.02 -8.94,19.88 -19.87,19.88 -10.94,0 -19.88,-8.86 -19.88,-19.88l0 -39.68 0 -416.77c0,-43.73 -35.61,-79.34 -79.36,-79.34 -43.83,0 -79.44,35.61 -79.44,79.34l0 714.46c0,262.69 213.72,476.33 476.34,476.33 262.61,0 476.33,-213.64 476.33,-476.33l0 -549.98c30.53,-33.07 39.22,-76.54 18.09,-105.39z"/>
  <path id="path2684" class="fil2" d="M8983.23 16920.28c73.55,0 107.67,-47.27 107.67,-104.37l0 -235.1 -29.49 0 0 237.36c0,37.96 -24.82,76.34 -73.93,76.34 -63.19,0 -80.58,-40.22 -80.58,-78.6l0 -19.23 -29.08 0 0 24.82c0,65.99 42.22,98.78 105.41,98.78zm241.64 -0.47c28.54,0 59.86,-6.09 79.13,-42.21l0.92 0c0,7.04 0.92,29.07 1.84,37.04l27.23 0c-1.46,-10.35 -3.33,-45.01 -3.33,-58.56l0 -113.38c0,-50.56 -40.21,-66.91 -85.63,-66.91 -43.52,0 -86.69,17.27 -86.69,63.74l0 7.04 25.24 0 0 -7.58c0,-30.41 30.91,-40.76 59.99,-40.76 35.2,0 59.48,12.63 59.48,49.26l0 35.97 -68.37 0c-38.37,0 -86.69,17.39 -86.69,69.85 0,43.01 34.66,66.5 76.88,66.5zm7.43 -21.49c-29.49,0 -56.69,-15.01 -56.69,-46.47 0,-39.83 32.79,-47.8 64.65,-47.8l62.82 0 0 26.29c0,40.21 -23.9,67.98 -70.76,67.98l-0.02 0zm164.48 16.32l27.13 0 0 -233.26 -27.13 0 0 233.26zm0 -289.41l27.13 0 0 -47.8 -27.13 0 0 47.8zm97.44 289.41l27.13 0 0 -139.53c0,-45.93 35.17,-75.01 72.09,-75.01 31.86,0 53.51,18.32 53.51,61.87l0 152.67 27.61 0 0 -165.28c0,-40.78 -23.9,-73.57 -72.62,-73.57 -32.81,0 -64.14,16.89 -80.59,50.06l-0.95 0 0 -44.47 -26.18 0 0 233.26zm449.13 0l29.62 0 0 -308.14 112.32 0 0 -25.74 -254.78 0 0 25.74 112.84 0 0 308.14zm232.47 6.1c30.94,0 63.2,-9.43 84.71,-40.35l-20.59 -13.01c-12.61,15.39 -32.25,29.87 -62.25,29.87 -45.01,0 -71.16,-26.16 -71.16,-67.45l0 -27.62 158.77 0 0 -34.12c0,-59.99 -37.97,-91.86 -90.02,-91.86 -55.74,0 -97.44,35.58 -97.44,99.83l0 50.59c0,64.12 40.75,94.12 97.98,94.12zm-69.29 -138.2l0 -12.61c0,-37.45 23.9,-70.77 66.5,-70.77 44.88,0 65.06,30.94 65.06,67.44l0 15.94 -131.56 0zm215.89 132.1l27.59 0 0 -141.91c0,-45.96 37.96,-72.63 70.75,-72.63 33.71,0 52.44,20.19 53.39,60.41l0 154.13 27.2 0 0 -143.37c1.33,-41.17 34.12,-71.17 70.24,-71.17 33.71,0 53.9,19.65 53.9,61.87l0 152.67 27.07 0 0 -167.68c0,-41.68 -27.07,-71.17 -72.62,-71.17 -34.66,0 -65.99,17.81 -82.84,50.98l-0.54 0c-6.51,-27.08 -27.61,-50.98 -65.96,-50.98 -33.74,0 -64.66,16.89 -81,50.06l-0.92 0 0 -44.47 -26.26 0 0 233.26zm399.03 90.81l27.1 0 0 -132.49 1.46 0c9.81,30.38 40.22,47.78 70.62,47.78 43.68,0 86.69,-25.75 86.69,-88.53l0 -76.75c0,-48.72 -33.18,-79.67 -82.44,-79.67 -26.69,0 -59.89,14.09 -76.33,47.27l-0.95 0 0 -41.68 -26.15 0 0 324.07zm95.47 -108.2c-36.51,0 -68.37,-28.54 -68.37,-73.42l0 -47.8c0,-48.72 35.58,-76.34 67.96,-76.34 39.29,0 62.66,25.24 62.66,57.64l0 78.59c0,42.22 -31.72,61.33 -62.25,61.33zm202.31 19.77c10.35,0 23.49,-1.46 34.66,-4.76l0 -20.98c-7.43,0.92 -16.34,2.25 -25.77,2.25 -23.36,0 -33.71,-14.06 -33.71,-32.25l0 -281.06 -27.61 0 0 279.19c0,28.95 11.68,57.61 52.43,57.61zm168.74 3.72c30.94,0 63.19,-9.43 84.71,-40.35l-20.59 -13.01c-12.61,15.39 -32.25,29.87 -62.25,29.87 -45.01,0 -71.16,-26.16 -71.16,-67.45l0 -27.62 158.77 0 0 -34.12c0,-59.99 -37.97,-91.86 -90.02,-91.86 -55.74,0 -97.44,35.58 -97.44,99.83l0 50.59c0,64.12 40.75,94.12 97.98,94.12zm-69.27 -138.2l0 -12.61c0,-37.45 23.9,-70.77 66.5,-70.77 44.88,0 65.07,30.94 65.07,67.44l0 15.94 -131.57 0z"/>
 </g>
</svg>
