<?xml version="1.0" encoding="UTF-8"?>
<!DOCTYPE svg PUBLIC "-//W3C//DTD SVG 1.1//EN" "http://www.w3.org/Graphics/SVG/1.1/DTD/svg11.dtd">
<!-- Creator: CorelDRAW -->
<svg xmlns="http://www.w3.org/2000/svg" xml:space="preserve" width="210mm" height="297mm" version="1.1" style="shape-rendering:geometricPrecision; text-rendering:geometricPrecision; image-rendering:optimizeQuality; fill-rule:evenodd; clip-rule:evenodd"
viewBox="0 0 21000 29700"
 xmlns:xlink="http://www.w3.org/1999/xlink"
 xmlns:xodm="http://www.corel.com/coreldraw/odm/2003">
 <defs>
  <style type="text/css">
   <![CDATA[
    .fil2 {fill:#1A1A18;fill-rule:nonzero}
    .fil0 {fill:#1B3C87;fill-rule:nonzero}
    .fil1 {fill:white;fill-rule:nonzero}
   ]]>
  </style>
 </defs>
 <g id="Layer_x0020_1">
  <metadata id="CorelCorpID_0Corel-Layer"/>
  <path id="path1914" class="fil0" d="M10807.29 14050.36c0,775.99 -629.06,1405.02 -1405.05,1405.02 -775.99,0 -1405.05,-629.03 -1405.05,-1405.02 0,-775.99 629.06,-1405.05 1405.05,-1405.05 775.99,0 1405.05,629.06 1405.05,1405.05z"/>
  <polygon id="path1916" class="fil1" points="8978.8,13791.86 8896.11,13553.12 8606.47,13553.3 8606.65,13681.61 8804.74,13681.54 8842.99,13791.86 8842.7,13791.86 9069.61,14494.93 9877.34,14494.93 10104.25,13791.86 "/>
  <path id="path1918" class="fil1" d="M9348.29 14714.92c0,64.25 -52.05,116.3 -116.32,116.3 -64.25,0 -116.3,-52.05 -116.3,-116.3 0,-64.25 52.05,-116.3 116.3,-116.3 64.27,0 116.32,52.05 116.32,116.3z"/>
  <path id="path1920" class="fil1" d="M9813.53 14710.92c0,64.25 -52.05,116.3 -116.29,116.3 -64.25,0 -116.3,-52.05 -116.3,-116.3 0,-64.27 52.05,-116.32 116.3,-116.32 64.24,0 116.29,52.05 116.29,116.32z"/>
  <path id="path2680" class="fil2" d="M8972.07 16392.17l28.58 0 0 -282.4 1.44 0 105.26 192.51 23.51 0 105.28 -193.02 0.93 0 0 282.91 29.07 0 0 -333.88 -37.45 0 -108.59 203.64 -0.54 0 -110.99 -203.64 -36.5 0 0 333.88zm431.37 5.17c28.54,0 59.87,-6.09 79.13,-42.21l0.9 0c0,7.04 0.92,29.07 1.84,37.04l27.23 0c-1.46,-10.35 -3.33,-45.01 -3.33,-58.56l0 -113.38c0,-50.56 -40.21,-66.91 -85.63,-66.91 -43.52,0 -86.69,17.27 -86.69,63.74l0 7.04 25.23 0 0 -7.58c0,-30.41 30.92,-40.76 60,-40.76 35.19,0 59.48,12.63 59.48,49.26l0 35.97 -68.37 0c-38.37,0 -86.69,17.39 -86.69,69.85 0,43.01 34.66,66.5 76.88,66.5l0.02 0zm7.43 -21.49c-29.48,0 -56.69,-15.01 -56.69,-46.47 0,-39.83 32.79,-47.8 64.66,-47.8l62.76 0 0 26.28c0,40.22 -23.9,67.99 -70.75,67.99l0.02 0zm163 16.32l27.61 0 0 -129.7c1.46,-52.97 36.53,-81.12 81.54,-81.12 5.56,0 13.52,0 21.49,1.46l0 -25.77c-4.64,-0.93 -10.76,-1.46 -16.32,-1.46 -31.48,0 -66.11,11.29 -86.71,52.97l-0.92 0 0 -49.64 -26.69 0 0 233.26zm172.45 0l27.61 0 0 -80.05 45.42 -47.8 75.8 127.85 30.94 0 -87.5 -147.5 80.07 -85.76 -33.73 0 -111 121.34 0 -222.5 -27.61 0 0 334.42zm310.93 6.09c30.94,0 63.19,-9.42 84.71,-40.34l-20.6 -13.01c-12.6,15.39 -32.25,29.86 -62.24,29.86 -45.01,0 -71.17,-26.15 -71.17,-67.44l0 -27.62 158.77 0 0 -34.12c0,-59.99 -37.96,-91.86 -90.01,-91.86 -55.74,0 -97.45,35.58 -97.45,99.83l0 50.59c0,64.12 40.76,94.11 97.99,94.11zm-69.3 -138.2l0 -12.6c0,-37.45 23.9,-70.78 66.5,-70.78 44.88,0 65.07,30.95 65.07,67.45l0 15.93 -131.57 0zm290.88 136.36c9.81,0 28.53,-1.46 43.54,-6.12l0 -23.88c-11.29,2.77 -23.51,5.18 -35.7,5.18 -23.78,0 -36.53,-7.97 -36.53,-33.33l0 -156.39 69.31 0 0 -22.44 -69.31 0 0 -73.54 -27.62 0 0 73.54 -43.52 0 0 22.44 43.52 0 0 163.95c0,39.29 27.23,50.59 56.31,50.59z"/>
 </g>
</svg>
