<?xml version="1.0" encoding="UTF-8"?>
<!DOCTYPE svg PUBLIC "-//W3C//DTD SVG 1.1//EN" "http://www.w3.org/Graphics/SVG/1.1/DTD/svg11.dtd">
<!-- Creator: CorelDRAW -->
<svg xmlns="http://www.w3.org/2000/svg" xml:space="preserve" width="210mm" height="297mm" version="1.1" style="shape-rendering:geometricPrecision; text-rendering:geometricPrecision; image-rendering:optimizeQuality; fill-rule:evenodd; clip-rule:evenodd"
viewBox="0 0 21000 29700"
 xmlns:xlink="http://www.w3.org/1999/xlink"
 xmlns:xodm="http://www.corel.com/coreldraw/odm/2003">
 <defs>
  <style type="text/css">
   <![CDATA[
    .fil0 {fill:#193E88;fill-rule:nonzero}
    .fil2 {fill:#1A1A18;fill-rule:nonzero}
    .fil1 {fill:white;fill-rule:nonzero}
   ]]>
  </style>
 </defs>
 <g id="Layer_x0020_1">
  <metadata id="CorelCorpID_0Corel-Layer"/>
  <path id="path1982" class="fil0" d="M12394.94 14941.25c0,775.99 -629.06,1405.05 -1405.05,1405.05 -776,0 -1405.05,-629.06 -1405.05,-1405.05 0,-775.99 629.05,-1405.05 1405.05,-1405.05 775.99,0 1405.05,629.06 1405.05,1405.05z"/>
  <path id="path1984" class="fil1" d="M11084.54 15568.85l-185.16 0c0,0 -0.64,-217.69 -1.53,-220.48l93.88 -73.93 93.81 73.93c-0.72,2.79 -1,220.48 -1,220.48zm-643.58 -492.04l0 557.66c0,0 32.63,0 32.81,0l1065.71 0 0 -557.66 -66.73 0 -1031.79 0z"/>
  <g>
   <path id="path1986" class="fil1" d="M10718.89 14949.78c0,-60.99 10.58,-98.42 25.95,-124.45 15.27,-26.02 36.22,-42.36 64.43,-59.09 49.87,-29.46 121.9,-56.92 184.43,-131.75 62.53,74.83 134.1,102.29 184,131.75 28.28,16.73 49.16,33.07 64.53,59.09 15.35,26.03 25.93,63.46 25.93,124.45 0,9.3 -0.72,18.62 -1.8,27.74l102.57 0c0.08,-3.07 0.28,-6.15 0.28,-9.22 0,-76.36 -13.65,-131.75 -38.5,-173.86 -24.75,-42.11 -59.81,-68.42 -95.88,-89.73 -70.11,-41.4 -143.94,-66.71 -208.21,-156.9l0 -51.87c4.79,-2.16 9.14,-4.41 13.83,-7.13 85.59,-49.44 115.51,-160.23 66.14,-245.63 0,-0.08 -0.46,0 -0.46,0 -9.94,-17.27 -21.87,-32.17 -35.96,-44.62 -5.79,-5.18 -13.3,-8.05 -20.98,-8.23 -1.26,-0.1 -2.44,-0.1 -3.61,0 -18.06,1.34 -31.72,17.06 -30.36,35.15 0.08,1.43 0.28,2.89 0.64,4.33 9.48,46.65 -10.58,96.34 -54.41,121.55 -44.01,25.38 -97.24,18.34 -132.84,-13.37 -13.66,-11.84 -34.35,-10.48 -46.27,3.15 -6.61,7.6 -9.4,17.8 -7.6,27.66 3.71,18.7 10.75,36.79 20.51,53.85 35,60.37 100.24,93.19 165.66,89.76l0 35.4c-64.34,90.3 -138.53,115.5 -208.67,156.9 -36.14,21.31 -71.11,47.62 -95.95,89.73 -24.77,42.11 -38.43,97.5 -38.43,173.86 0,3.07 0.1,6.15 0.18,9.22l102.7 0c-1.08,-9.12 -1.82,-18.34 -1.82,-27.74l-0.03 0zm0 0l0 0 0 0z"/>
  </g>
  <polygon id="path1988" class="fil1" points="11506.03,15012.69 10474.33,15012.69 10474.33,14934.97 11506.03,14934.97 "/>
  <path id="path2688" class="fil2" d="M10248.09 17299.07l28.56 0 0 -282.4 1.49 0 105.26 192.51 23.49 0 105.28 -193.02 0.92 0 0 282.91 29.08 0 0 -333.88 -37.46 0 -108.58 203.64 -0.54 0 -111 -203.64 -36.5 0 0 333.88zm431.35 5.17c28.54,0 59.87,-6.09 79.13,-42.21l0.92 0c0,7.04 0.93,29.07 1.85,37.04l27.25 0c-1.46,-10.35 -3.33,-45.01 -3.33,-58.56l0 -113.38c0,-50.56 -40.21,-66.91 -85.63,-66.91 -43.52,0 -86.69,17.27 -86.69,63.74l0 7.04 25.24 0 0 -7.58c0,-30.41 30.91,-40.76 59.99,-40.76 35.2,0 59.48,12.63 59.48,49.26l0 35.97 -68.4 0c-38.37,0 -86.68,17.39 -86.68,69.85 0,43.01 34.66,66.5 76.87,66.5zm7.43 -21.49c-29.48,0 -56.69,-15.01 -56.69,-46.47 0,-39.83 32.79,-47.8 64.66,-47.8l62.78 0 0 26.28c0,40.22 -23.9,67.99 -70.75,67.99zm238.98 21.9c43.93,0 88.42,-24.82 88.42,-73.95 0,-34.25 -22.97,-51.52 -55.76,-59.07l-34.66 -7.46c-34.12,-7.43 -52.85,-16.85 -52.85,-41.14 0,-23.9 20.6,-41.29 51.52,-41.29 27.61,0 46.87,7.56 61.73,19.65l18.34 -15.4c-17.8,-18.31 -45.01,-25.77 -77.82,-25.77 -51.49,0 -80.97,29.49 -80.97,67.45 0,32.79 24.82,51.51 66.11,59.48l25.75 5.58c32.27,6.1 50.05,14.99 50.05,43.55 0,30 -30.41,46.47 -60.4,46.47 -30.92,0 -52.98,-9.43 -72.62,-28.15l-18.73 15.93c21.52,24.82 54.84,34.12 91.89,34.12zm114.58 90.4c45,0 65.57,-22.03 65.57,-65.04l0 -264.2 -27.61 0 0 261.79c0,26.7 -9.3,43.55 -38.37,43.55 -3.72,0 -11.68,-0.36 -16.86,-0.92l0 23.9c4.25,0.54 11.68,0.92 17.27,0.92zm38.5 -385.39l27.61 0 0 -47.8 -27.61 0 0 47.8zm98.75 289.41l27.1 0 0 -233.26 -27.1 0 0 233.26zm0 -289.41l27.1 0 0 -47.8 -27.1 0 0 47.8zm168.6 295.5c25.77,0 58.95,-14.6 75.83,-52.02l0.92 0 0 45.93 26.69 0 0 -333.5 -27.61 0 0 142.45 -0.95 0c-9.81,-30.53 -40.75,-47.8 -70.62,-47.8 -44.06,0 -86.69,25.77 -86.69,88.56l0 76.74c0,48.73 32.79,79.64 82.43,79.64zm7.97 -23.87c-39.42,0 -62.78,-25.36 -62.78,-57.64l0 -78.72c0,-42.08 32.25,-61.35 62.27,-61.35 37.04,0 68.88,28.57 68.88,73.57l0 45.93c0,48.73 -35.58,78.21 -68.37,78.21z"/>
 </g>
</svg>
