<?xml version="1.0" encoding="UTF-8"?>
<!DOCTYPE svg PUBLIC "-//W3C//DTD SVG 1.1//EN" "http://www.w3.org/Graphics/SVG/1.1/DTD/svg11.dtd">
<!-- Creator: CorelDRAW -->
<svg xmlns="http://www.w3.org/2000/svg" xml:space="preserve" width="210mm" height="297mm" version="1.1" style="shape-rendering:geometricPrecision; text-rendering:geometricPrecision; image-rendering:optimizeQuality; fill-rule:evenodd; clip-rule:evenodd"
viewBox="0 0 21000 29700"
 xmlns:xlink="http://www.w3.org/1999/xlink"
 xmlns:xodm="http://www.corel.com/coreldraw/odm/2003">
 <defs>
  <style type="text/css">
   <![CDATA[
    .fil2 {fill:#1A1A18;fill-rule:nonzero}
    .fil0 {fill:#1B3C87;fill-rule:nonzero}
    .fil1 {fill:white;fill-rule:nonzero}
   ]]>
  </style>
 </defs>
 <g id="Layer_x0020_1">
  <metadata id="CorelCorpID_0Corel-Layer"/>
  <path id="path2020" class="fil0" d="M11874.16 13863.25c0,775.99 -629.06,1405.05 -1405.05,1405.05 -775.99,0 -1405.05,-629.06 -1405.05,-1405.05 0,-776 629.06,-1405.05 1405.05,-1405.05 775.99,0 1405.05,629.05 1405.05,1405.05z"/>
  <path id="path2022" class="fil1" d="M10068.52 14517.54c-27.66,0 -50.08,22.41 -50.08,50.08l0 100.1c0,27.77 22.42,50.08 50.08,50.08l801.2 0c27.67,0 50.06,-22.31 50.06,-50.08l0 -100.1c0,-27.67 -22.39,-50.08 -50.06,-50.08l-801.2 0z"/>
  <path id="path2024" class="fil1" d="M10345.33 13309.09c73.21,0 146.58,-17.34 212.1,-50.05 34.97,-17.55 75.73,-15.73 108.9,4.86 18.08,11.12 31.71,27.03 40.86,45.19l12.27 0c35.71,0 68.78,10.12 97.77,26.56 -12.37,-182.08 -162.91,-327.04 -348.09,-327.04 -175.94,0 -319.18,131.31 -343.85,300.48l220.04 0z"/>
  <path id="path2026" class="fil1" d="M10218.74 13609.54l4.97 0c23.05,114.12 124.26,200.25 245.45,200.25 121.09,0 222.3,-86.13 245.35,-200.25l4.97 0c55.13,0 100.11,-45.08 100.11,-100.13 0,-55.13 -44.98,-100.13 -100.11,-100.13l-50.08 0c-28,0 -50.05,-22.03 -50.05,-50.16 0,-3.97 -2,-7.94 -6.05,-9.94 -2.99,-2.07 -6.96,-2.07 -11.04,-0.97 -79.07,40.01 -168.17,61.07 -257.36,61.07l-126.16 0c-55.13,0 -100.11,45 -100.11,100.13 0,55.05 44.98,100.13 100.11,100.13z"/>
  <path id="path2028" class="fil1" d="M11019.96 14163.7c0,-179.57 -136.38,-329.76 -310.7,-349.82 -63.35,59.72 -148.29,96.14 -240.1,96.14 -91.91,0 -176.85,-36.42 -240.2,-96.14 -174.32,20.06 -310.6,170.25 -310.6,349.82 0,27.64 22.31,50.05 50.06,50.05 120.9,0 222.04,89.45 245.27,203.6l510.84 0c23.31,-114.15 124.44,-203.6 245.35,-203.6 27.67,0 50.08,-22.41 50.08,-50.05z"/>
  <path id="path2696" class="fil2" d="M9632.87 16221.94l28.56 0 0 -282.4 1.46 0 105.26 192.51 23.51 0 105.29 -193.02 0.94 0 0 282.91 29.05 0 0 -333.88 -37.42 0 -108.59 203.64 -0.56 0 -111 -203.64 -36.5 0 0 333.88zm437.45 5.58c32.79,0 64.11,-16.34 80.59,-50.05l0.92 0 0 44.47 26.15 0 0 -233.26 -27.07 0 0 139.53c0,45.93 -35.18,75 -71.7,75 -32.38,0 -53.9,-18.31 -53.9,-61.86l0 -152.67 -27.62 0 0 165.27c0,40.78 23.9,73.57 72.63,73.57zm251.57 0c43.94,0 88.43,-24.82 88.43,-73.95 0,-34.25 -22.98,-51.52 -55.77,-59.07l-34.65 -7.46c-34.13,-7.43 -52.85,-16.85 -52.85,-41.14 0,-23.9 20.59,-41.29 51.51,-41.29 27.62,0 46.88,7.56 61.74,19.65l18.34 -15.4c-17.8,-18.31 -45.01,-25.77 -77.82,-25.77 -51.49,0 -80.98,29.49 -80.98,67.45 0,32.79 24.83,51.51 66.12,59.48l25.74 5.58c32.28,6.1 50.06,14.99 50.06,43.55 0,30 -30.41,46.47 -60.4,46.47 -30.92,0 -52.98,-9.43 -72.63,-28.15l-18.72 15.93c21.52,24.82 54.84,34.12 91.88,34.12zm230.37 0.54c30.94,0 63.2,-9.43 84.71,-40.35l-20.59 -13.01c-12.61,15.4 -32.25,29.87 -62.25,29.87 -45.01,0 -71.16,-26.15 -71.16,-67.45l0 -27.61 158.74 0.02 0 -34.12c0,-59.99 -37.96,-91.86 -90.01,-91.86 -55.74,0 -97.45,35.58 -97.45,99.83l0 50.59c0,64.12 40.76,94.11 97.98,94.11l0.03 -0.02zm-69.32 -138.2l0 -12.6c0,-37.45 23.9,-70.78 66.5,-70.78 44.88,0 65.07,30.94 65.07,67.45l0 15.93 -131.57 0zm286.62 137.71c32.79,0 64.12,-16.34 80.59,-50.05l0.95 0 0 44.47 26.13 0 0 -233.26 -27.08 -0.03 0 139.53c0,45.93 -35.17,75.01 -71.7,75.01 -32.38,0 -53.9,-18.32 -53.9,-61.87l0 -152.67 -27.61 0 0 165.28c0,40.78 23.9,73.57 72.62,73.57l0 0.02zm176.58 -5.58l27.61 0 0 -141.92c0,-45.95 37.96,-72.62 70.75,-72.62 33.71,0 52.44,20.19 53.39,60.41l0 154.13 27.2 0 0 -143.38c1.33,-41.16 34.12,-71.16 70.24,-71.16 33.71,0 53.9,19.65 53.9,61.87l0 152.67 27.07 0 0 -167.69c0,-41.67 -27.07,-71.16 -72.62,-71.16 -34.66,0 -65.99,17.81 -82.84,50.98l-0.54 -0.03c-6.51,-27.07 -27.61,-50.97 -65.96,-50.97 -33.74,0 -64.66,16.88 -81,50.05l-0.92 0 0 -44.47 -26.28 0 0 233.26 0 0.03z"/>
 </g>
</svg>
