<?xml version="1.0" encoding="UTF-8"?>
<!DOCTYPE svg PUBLIC "-//W3C//DTD SVG 1.1//EN" "http://www.w3.org/Graphics/SVG/1.1/DTD/svg11.dtd">
<!-- Creator: CorelDRAW -->
<svg xmlns="http://www.w3.org/2000/svg" xml:space="preserve" width="210mm" height="297mm" version="1.1" style="shape-rendering:geometricPrecision; text-rendering:geometricPrecision; image-rendering:optimizeQuality; fill-rule:evenodd; clip-rule:evenodd"
viewBox="0 0 21000 29700"
 xmlns:xlink="http://www.w3.org/1999/xlink"
 xmlns:xodm="http://www.corel.com/coreldraw/odm/2003">
 <defs>
  <style type="text/css">
   <![CDATA[
    .fil2 {fill:#1A1A18;fill-rule:nonzero}
    .fil0 {fill:#1B3C87;fill-rule:nonzero}
    .fil1 {fill:white;fill-rule:nonzero}
   ]]>
  </style>
 </defs>
 <g id="Layer_x0020_1">
  <metadata id="CorelCorpID_0Corel-Layer"/>
  <path id="path1990" class="fil0" d="M12367.95 13827.52c0,775.33 -627.96,1403.93 -1403.03,1405.03l-4.05 0c-775.07,-1.1 -1403.02,-629.7 -1403.02,-1405.03 0,-775.99 629.05,-1405.05 1405.05,-1405.05 775.99,0 1405.05,629.06 1405.05,1405.05z"/>
  <path id="path1992" class="fil1" d="M10831.23 13564.24l-351.35 0 0 -131.92 351.35 0 0 131.92zm0 307.27l-351.35 0 0 -131.95 351.35 0 0 131.95zm0 307.34l-351.35 0 0 -131.95 351.35 0 0 131.95zm-526.93 -965.96l0 1229.29 702.6 0 0 -1361.22 -702.6 131.93z"/>
  <path id="path1994" class="fil1" d="M11533.57 13871.51l-263.33 0 0 -131.95 263.33 0 0 131.95zm0 307.34l-263.33 0 0 -131.95 263.33 0 0 131.95zm-439.01 263.33l614.61 0 0 -921.95 -614.61 0 0 921.95z"/>
  <path id="path2700" class="fil2" d="M10139.08 16177.02c69.83,0 124.13,-45.39 124.13,-119.89l0 -113.37c0,-72.09 -54.3,-113.38 -125.05,-113.38 -69.71,0 -124.55,45.42 -124.55,119.88l0 116.17c0,72.62 56.18,110.59 125.47,110.59zm0 -26.28c-57.1,0 -95.99,-34.13 -95.99,-88.94l0 -111c0,-57.61 39.3,-93.73 93.73,-93.73 58.54,0 96.91,32.41 96.91,86.17l0 116.69c0,57.09 -41.29,90.81 -94.65,90.81zm213.23 20.18l27.07 0 0 -210.82 57.21 0 0 -21.9 -57.21 0 0 -45.55c0,-28 15.91,-38.76 35.59,-38.76 9.81,0 15.9,0.36 23.87,2.8l0 -24.44c-7.97,-1.87 -16.32,-2.79 -25.21,-2.79 -39.45,0 -61.35,23.49 -61.35,65.57l0 43.17 -44.6 0 0 21.9 44.63 0 0 210.82zm151.21 0l27.1 0 0 -210.82 57.18 0 0 -21.9 -57.18 0 0 -45.55c0,-28 15.91,-38.76 35.58,-38.76 9.81,0 15.91,0.36 23.88,2.8l0 -24.44c-7.97,-1.87 -16.32,-2.79 -25.21,-2.79 -39.45,0 -61.35,23.49 -61.35,65.57l0 43.17 -44.62 0 0 21.9 44.62 0 0 210.82zm127.34 0l27.18 0 0 -233.26 -27.18 0 0 233.26zm0 -289.41l27.18 0 0 -47.8 -27.18 0 0 47.8zm179.31 295.51c55.23,0 88.56,-30.92 88.56,-77.26l0 -6.1 -26.67 0 0 7.97c0,24.28 -17.39,51.9 -61.45,51.9 -46.34,0 -65.45,-28.95 -65.45,-69.7l0 -56.69c0,-40.76 21.49,-71.7 65.04,-71.7 44.08,0 61.86,28.15 61.86,52.05l0 9.3 26.67 0 0 -7.05c0,-46.34 -34.25,-77.26 -89.1,-77.26 -56.15,0 -93.19,36.12 -93.19,96.53l0 54.28c0,60.02 35.71,93.73 93.73,93.73zm227.68 0c30.94,0 63.19,-9.43 84.71,-40.35l-20.59 -13.01c-12.61,15.39 -32.25,29.87 -62.25,29.87 -45.01,0 -71.16,-26.16 -71.16,-67.45l0 -27.61 158.77 0 0 -34.13c0,-59.99 -37.97,-91.86 -90.02,-91.86 -55.74,0 -97.44,35.59 -97.44,99.83l0 50.59c0,64.12 40.75,94.12 97.98,94.12zm-69.27 -138.2l0 -12.61c0,-37.45 23.9,-70.77 66.5,-70.77 44.88,0 65.07,30.94 65.07,67.44l0 15.94 -131.57 0zm290.85 137.69c43.93,0 88.43,-24.83 88.43,-73.96 0,-34.25 -22.98,-51.51 -55.77,-59.07l-34.66 -7.45c-34.12,-7.43 -52.84,-16.86 -52.84,-41.14 0,-23.9 20.59,-41.3 51.51,-41.3 27.61,0 46.88,7.56 61.73,19.65l18.35 -15.39c-17.81,-18.32 -45.01,-25.77 -77.83,-25.77 -51.48,0 -80.97,29.48 -80.97,67.44 0,32.79 24.82,51.52 66.12,59.48l25.74 5.59c32.28,6.09 50.05,14.98 50.05,43.55 0,29.99 -30.4,46.46 -60.4,46.46 -30.92,0 -52.97,-9.42 -72.62,-28.15l-18.73 15.93c21.52,24.83 54.85,34.13 91.89,34.13z"/>
 </g>
</svg>
