<?xml version="1.0" encoding="UTF-8"?>
<!DOCTYPE svg PUBLIC "-//W3C//DTD SVG 1.1//EN" "http://www.w3.org/Graphics/SVG/1.1/DTD/svg11.dtd">
<!-- Creator: CorelDRAW -->
<svg xmlns="http://www.w3.org/2000/svg" xml:space="preserve" width="210mm" height="297mm" version="1.1" style="shape-rendering:geometricPrecision; text-rendering:geometricPrecision; image-rendering:optimizeQuality; fill-rule:evenodd; clip-rule:evenodd"
viewBox="0 0 21000 29700"
 xmlns:xlink="http://www.w3.org/1999/xlink"
 xmlns:xodm="http://www.corel.com/coreldraw/odm/2003">
 <defs>
  <style type="text/css">
   <![CDATA[
    .fil2 {fill:#1A1A18;fill-rule:nonzero}
    .fil1 {fill:#1B3C87;fill-rule:nonzero}
    .fil0 {fill:white;fill-rule:nonzero}
   ]]>
  </style>
 </defs>
 <g id="Layer_x0020_1">
  <metadata id="CorelCorpID_0Corel-Layer"/>
  <polygon id="path2058" class="fil0" points="9412.15,15803 9412.15,15743.29 9381.44,15708.94 9298.18,15694.49 9298.18,15764.96 9366.89,15803 "/>
  <path id="path2060" class="fil1" d="M11142.63 16065.78c0,775.99 -629.03,1405.05 -1405.02,1405.05 -776,0 -1405.05,-629.06 -1405.05,-1405.05 0,-776 629.05,-1405.05 1405.05,-1405.05 775.99,0 1405.02,629.05 1405.02,1405.05z"/>
  <path id="path2062" class="fil0" d="M9883.36 15276.13l-234.05 -78.8 -10.76 144.15c67.24,1.18 137.45,22.49 183.64,61.35l61.17 -126.7z"/>
  <path id="path2064" class="fil0" d="M9738.94 15545.05c45,47.62 102.74,41.65 104.18,-25.67 2.07,-91.45 -67.86,-156.23 -232.52,-160.41l0 38.5c79.44,16.63 118.3,69.25 128.34,147.58z"/>
  <path id="path2066" class="fil0" d="M9584.16 15701.44l130.77 -148.4c-7.04,-59.74 -50.61,-128.23 -119.55,-132.31l-0.82 54.05 -33.63 34.15 20.08 0 13.55 14.47 -0.89 42.48 -36.79 98.67 -18.44 10.4 0 74.54 45.72 -20.77 0 -27.28z"/>
  <polygon id="path2068" class="fil0" points="9319.8,16807.03 9319.8,16807.39 9319.7,16807.31 "/>
  <path id="path2070" class="fil0" d="M10847.89 16031.6c0,163.92 -132.92,296.77 -296.76,296.77l-450.16 0c25.03,25.74 42.75,63.24 59.2,98.24 20.16,42.65 41.01,86.73 69.68,96.6 1.61,0.53 3.25,0.99 4.97,1.35 -1.82,-5.71 -2.9,-11.83 -2.9,-18.34 0,-27.48 18.27,-49.72 40.83,-49.72 22.6,0 40.96,22.24 40.96,49.72 0,18.06 -7.96,33.79 -19.9,42.55l0.28 0.36c-1,0.54 -2,1 -2.97,1.46 -2.71,1.61 -5.61,2.97 -8.68,3.87 -13.66,5.61 -26.85,8.4 -39.32,8.4 -8.76,0 -17.24,-1.44 -25.39,-4.23 -43.65,-14.91 -67.86,-66.34 -91.37,-116.14 -30.18,-63.89 -53.59,-106.44 -94.07,-107.97l70.86 437.19 10.76 35.53 0 0.07c-1.1,82.16 -178.5,148.58 -397,148.58 -218.51,0 -395.82,-66.42 -397.08,-148.58l0 -0.28 11.4 -36.24 73.01 -436.3c-41.4,0.72 -64.97,43.47 -95.42,107.97 -23.42,49.8 -47.73,101.24 -91.38,116.15 -8.12,2.79 -16.62,4.22 -25.49,4.22 -12.47,0 -25.56,-2.79 -39.29,-8.4 -3,-0.9 -5.89,-2.25 -8.58,-3.87 -1,-0.46 -2,-0.92 -3,-1.46l0.18 -0.36c-11.84,-8.76 -19.78,-24.48 -19.78,-42.54 0,-27.49 18.34,-49.73 40.94,-49.73 22.59,0 40.83,22.24 40.83,49.73 0,6.5 -1,12.62 -2.89,18.34 1.71,-0.36 3.35,-0.82 4.97,-1.36 28.66,-9.86 49.43,-53.95 69.59,-96.6 16.53,-34.99 34.15,-72.49 59.18,-98.24l-433.48 0c-81.97,0 -156.26,-33.17 -209.92,-86.84 -53.7,-53.77 -86.95,-127.98 -86.95,-209.92l234.24 0c11.3,126.06 117.4,225.19 246.25,225.19l346.48 0c-4.79,-9.12 -9.14,-18.52 -12.93,-28.1l-333.55 0c-113.41,0 -206.93,-86.58 -218.05,-197.09l270.1 0c13.29,61.89 68.32,108.53 134.1,108.53l124.98 0c-1,-9.32 -1.71,-18.62 -1.89,-28.12l-123.09 0.02c-50.16,0 -92.45,-34.14 -105.08,-80.41l320.36 -0.02c-12.83,30.64 -19.8,64.32 -19.8,99.57 0,143.6 116.4,260 259.9,260 143.58,0 259.98,-116.4 259.98,-260 0,-35.25 -7.04,-68.93 -19.78,-99.57l320.36 0c-12.65,46.26 -54.95,80.41 -105.21,80.41l-122.98 0.02c-0.28,9.51 -0.9,18.81 -1.89,28.13l124.87 -0.03c65.89,0 121.02,-46.64 134.21,-108.53l270.2 0c-11.2,110.51 -104.82,197.09 -218.23,197.09l-333.47 0c-3.79,9.58 -8.22,18.98 -12.91,28.1l346.38 0c128.96,0 235.13,-99.13 246.33,-225.19l234.23 0 0.03 0.02z"/>
  <path id="path2072" class="fil0" d="M9905.37 15765.4l0 365.8c0,20.88 -3.54,40.93 -10.15,59.56 -24.49,69.93 -91.09,120.09 -169.42,120.09 -78.36,0 -144.97,-50.16 -169.46,-120.09 -6.58,-18.63 -10.11,-38.68 -10.11,-59.56l0 -181.64 28.64 -173.14 56.66 -8.94 11.04 -43.04 94.96 -97.5c0,0 24.59,40.94 62.37,40.94 13.27,0 30.26,4.07 46.63,12.12 30.27,14.9 58.84,43.47 58.84,85.4z"/>
  <path id="path2074" class="fil0" d="M9431.77 15920.99c0,51.06 -41.39,92.45 -92.45,92.45 -50.97,0 -92.37,-41.39 -92.37,-92.45 0,-51.05 41.4,-92.45 92.37,-92.45 51.06,0 92.45,41.4 92.45,92.45z"/>
  <path id="path2076" class="fil0" d="M9523.09 15783.1c-4.79,28.46 -13.65,80.44 -21.41,122.63 -2.61,0.28 -5.33,0.35 -8.15,0.46l-41.29 -46.01 -23.77 -26.38 0 -82.77 41.57 0 53.05 32.07z"/>
  <g>
   <path id="path2686" class="fil2" d="M8441.55 18399.67l29.49 0 0 -134.36 78.18 0c71.7,0 112.45,-43.13 112.45,-100.77 0,-58.53 -40.75,-98.75 -105.79,-98.75l-114.33 0 0 333.88zm29.49 -159.72l0 -148.96 81.51 0c46.85,0 79.66,28.57 79.66,73.55 0,50.59 -34.65,75.41 -90.42,75.41l-70.75 0zm303.11 164.89c28.54,0 59.87,-6.09 79.13,-42.21l0.9 0c0,7.04 0.92,29.07 1.84,37.04l27.23 0c-1.46,-10.35 -3.33,-45.01 -3.33,-58.56l0 -113.38c0,-50.56 -40.21,-66.91 -85.63,-66.91 -43.52,0 -86.69,17.27 -86.69,63.74l0 7.04 25.23 0 0 -7.58c0,-30.41 30.92,-40.76 60,-40.76 35.19,0 59.48,12.63 59.48,49.26l0 35.97 -68.37 0c-38.37,0 -86.69,17.39 -86.69,69.86 0,43 34.66,66.49 76.88,66.49l0.02 0zm7.41 -21.49c-29.49,0 -56.69,-15.01 -56.69,-46.47 0,-39.83 32.79,-47.79 64.65,-47.79l62.79 0 0 26.28c0,40.21 -23.9,67.98 -70.75,67.98zm163.02 16.32l27.61 0 0 -129.69c1.46,-52.98 36.53,-81.13 81.54,-81.13 5.56,0 13.52,0 21.49,1.46l0 -25.77c-4.64,-0.92 -10.76,-1.46 -16.32,-1.46 -31.48,0 -66.11,11.3 -86.71,52.97l-0.92 0 0 -49.64 -26.69 0 0 233.26zm246.94 5.58c43.93,0 88.43,-24.82 88.43,-73.95 0,-34.25 -22.98,-51.51 -55.77,-59.07l-34.66 -7.45c-34.12,-7.43 -52.85,-16.86 -52.85,-41.14 0,-23.9 20.6,-41.3 51.52,-41.3 27.61,0 46.88,7.56 61.73,19.65l18.34 -15.4c-17.8,-18.31 -45,-25.77 -77.82,-25.77 -51.49,0 -80.97,29.49 -80.97,67.45 0,32.79 24.82,51.52 66.12,59.48l25.74 5.59c32.28,6.09 50.05,14.98 50.05,43.54 0,30 -30.4,46.47 -60.4,46.47 -30.92,0 -52.97,-9.42 -72.62,-28.15l-18.73 15.93c21.52,24.83 54.85,34.12 91.89,34.12zm144.17 -5.58l27.1 0 0 -233.26 -27.1 0 0 233.26zm0 -289.41l27.1 0 0 -47.8 -27.1 0 0 47.8zm188.28 289.41l29.58 0 38.35 -105.41 139.53 0 37.45 105.41 30.95 0 -122.68 -334.83 -28.15 0 -125.03 334.83zm76.31 -130.23l61.86 -169.56 0.54 0 60.4 169.56 -122.8 0zm325.12 226.75c64.12,0 98.77,-42.21 98.77,-96.52l0 -233.26 -26.69 0 0 42.21c-12.19,-34.24 -47.77,-47.8 -73.54,-47.8 -41.68,0 -84.84,28.03 -84.84,87.1l0 69.32c0,48.18 30.94,80.05 82.46,80.05 29.61,0 59.99,-13.02 75.92,-46.34l0 51.51c0,44.06 -27.2,71.16 -70.21,71.16 -24.82,0 -44.09,-9.29 -59.1,-28.94l-24.82 11.14c17.8,27.62 48.72,40.37 82.05,40.37zm4.66 -121.34c-40.78,0 -62.81,-25.23 -62.81,-57.61l0 -71.16c0,-42.63 31.87,-61.36 62.27,-61.36 32.79,0 67.96,24.83 67.96,69.71l0 44.62c0,52.44 -34.63,75.8 -67.42,75.8zm163.94 24.82l27.11 0 0 -233.26 -27.11 0 0 233.26zm0 -289.41l27.11 0 0 -47.8 -27.11 0 0 47.8zm161.59 294.58c28.54,0 59.87,-6.09 79.13,-42.21l0.92 0c0,7.04 0.92,29.07 1.85,37.04l27.23 0c-1.46,-10.35 -3.33,-45.01 -3.33,-58.56l0 -113.38c0,-50.56 -40.22,-66.91 -85.64,-66.91 -43.52,0 -86.68,17.27 -86.68,63.74l0 7.04 25.23 0 0 -7.58c0,-30.41 30.92,-40.76 59.99,-40.76 35.2,0 59.48,12.63 59.48,49.26l0 35.97 -68.37 0c-38.37,0 -86.68,17.39 -86.68,69.86 0,43 34.66,66.49 76.87,66.49zm7.43 -21.49c-29.48,0 -56.69,-15.01 -56.69,-46.47 0,-39.83 32.79,-47.79 64.66,-47.79l62.78 0 0 26.28c0,40.21 -23.9,67.98 -70.75,67.98zm163.02 16.32l27.62 0 0 -129.69c1.46,-52.98 36.52,-81.13 81.53,-81.13 5.56,0 13.53,0 21.49,1.46l0 -25.77c-4.63,-0.92 -10.75,-1.46 -16.31,-1.46 -31.49,0 -66.12,11.3 -86.71,52.97l-0.93 0 0 -49.64 -26.69 0 0 233.26zm188.31 95.98c27.61,0 56.27,-9.29 70.75,-52.84l102.1 -276.4 -27.61 0 -69.32 193.43 -0.54 0 -72.11 -193.43 -29.99 0 88.55 228.09 -17.39 45.39c-7.43,20.18 -22.82,32.4 -43.55,32.4 -9.81,0 -20.05,-1.46 -29.46,-3.71l0 23.9c10.74,2.25 20.16,3.17 28.54,3.17l0.03 0zm0 0l0 0 0 0z"/>
  </g>
 </g>
</svg>
