<?xml version="1.0" encoding="UTF-8"?>
<!DOCTYPE svg PUBLIC "-//W3C//DTD SVG 1.1//EN" "http://www.w3.org/Graphics/SVG/1.1/DTD/svg11.dtd">
<!-- Creator: CorelDRAW -->
<svg xmlns="http://www.w3.org/2000/svg" xml:space="preserve" width="210mm" height="297mm" version="1.1" style="shape-rendering:geometricPrecision; text-rendering:geometricPrecision; image-rendering:optimizeQuality; fill-rule:evenodd; clip-rule:evenodd"
viewBox="0 0 21000 29700"
 xmlns:xlink="http://www.w3.org/1999/xlink"
 xmlns:xodm="http://www.corel.com/coreldraw/odm/2003">
 <defs>
  <style type="text/css">
   <![CDATA[
    .fil2 {fill:#1A1A18;fill-rule:nonzero}
    .fil0 {fill:#1B3C87;fill-rule:nonzero}
    .fil1 {fill:white;fill-rule:nonzero}
   ]]>
  </style>
 </defs>
 <g id="Layer_x0020_1">
  <metadata id="CorelCorpID_0Corel-Layer"/>
  <path id="path1928" class="fil0" d="M12002.37 13920.25c0,776 -629.03,1405.05 -1405.02,1405.05 -776,0 -1405.05,-629.05 -1405.05,-1405.05 0,-775.99 629.05,-1405.05 1405.05,-1405.05 775.99,0 1405.02,629.06 1405.02,1405.05z"/>
  <path id="path1996" class="fil1" d="M11096.02 13601.41c20.7,-20.7 54.3,-20.7 75,0 13.19,13.19 30.72,20.52 49.44,20.52 18.6,0 36.22,-7.33 49.41,-20.52 20.7,-20.7 54.23,-20.7 74.93,0 20.7,20.7 20.7,54.3 0,75 -33.25,33.18 -77.36,51.52 -124.34,51.52 -47,0 -91.19,-18.34 -124.44,-51.52 -20.7,-20.7 -20.7,-54.3 0,-75zm-586.13 -244.36l0 38.69c53.67,-3.72 82.33,0.71 85.3,1.15 17.27,2.82 32.08,13.93 39.5,29.84l75.37 160.56c9.12,2.1 17.8,6.61 24.92,13.66 9.15,8.86 19.98,15.8 32.36,18.8 24.59,5.97 48.97,-0.82 66.24,-17.62 17.9,-17.35 45.01,-21.78 66.06,-8.51 30,18.98 33.25,59.2 9.69,82.79 -33.28,33.18 -77.36,51.52 -124.45,51.52 -2.99,0 -5.97,-0.11 -9.04,-0.29l101.31 215.98c4.33,9.14 8.4,18.26 12.2,27.48 114.04,-35.96 243.81,-9.22 334.54,80.44 20.24,19.95 22.49,52.66 3.51,74 -10.55,11.84 -25.1,17.8 -39.65,17.8 -13.58,0 -27.13,-5.14 -37.5,-15.44 -61.46,-61.45 -149.65,-80.18 -227.48,-56.23 29.57,117.66 27.57,239.03 -2.89,352.81 14.37,4.79 28.92,8.94 43.75,12.66 17.27,4.22 35.25,4.33 52.41,0.07 265.13,-65.6 453.92,-303.98 453.92,-580.25l0 -499.91c0,-24.77 -15.26,-47 -38.4,-55.66 -73.03,-27.49 -214.17,-64.71 -441.65,-64.71 -227.36,0 -368.51,37.33 -441.52,64.71 -23.23,8.66 -38.5,30.89 -38.5,55.66z"/>
  <path id="path1998" class="fil1" d="M10325.17 14480.33c-37.5,0 -75.54,-6.33 -112.76,-19.8 -27.48,-9.94 -41.75,-40.4 -31.81,-67.96 9.93,-27.47 40.29,-41.73 67.85,-31.79 117.58,42.47 247.79,-18.63 290.26,-136.21 9.97,-27.56 40.32,-41.75 67.88,-31.79 27.57,9.94 41.84,40.3 31.82,67.86 -48.9,135.28 -176.96,219.69 -313.24,219.69zm-178 -346.57c-17.55,-6.32 -36.53,-5.5 -53.52,2.44 -16.8,7.96 -29.63,21.95 -35.96,39.58 -7.86,21.59 -28.2,34.99 -49.88,34.99 -5.96,0 -12.11,-1 -18.08,-3.18 -27.46,-9.94 -41.76,-40.29 -31.82,-67.86 16.01,-44.18 48.19,-79.54 90.74,-99.49 42.57,-19.98 90.37,-22.16 134.56,-6.25 27.48,10.04 41.75,40.4 31.81,67.96 -9.93,27.49 -40.29,41.75 -67.85,31.81zm205.03 -179.03c32.99,-91.27 134.02,-138.61 225.29,-105.64 27.46,9.94 41.76,40.32 31.82,67.88 -9.94,27.46 -40.32,41.76 -67.88,31.82 -36.23,-13.12 -76.44,5.76 -89.56,42.01 -7.76,21.59 -28.1,34.97 -49.8,34.97 -6.04,0 -12.09,-1 -18.06,-3.15 -27.48,-9.94 -41.75,-40.32 -31.81,-67.89zm429.02 33.89l-213.46 -454.99c-9.86,-20.88 -31.53,-33.53 -54.67,-31.82 -77.1,5.87 -221.68,31.46 -429.89,129.13 -205.95,96.63 -317.82,190.33 -372.3,246.18 -17.27,17.7 -21.7,44.29 -11.22,66.7l212.36 452.64c117.29,250.06 389.59,385.7 657.44,332.47 17.34,-3.43 33.53,-11.04 47.26,-22.13 212.18,-171.99 281.78,-468.03 164.48,-718.18z"/>
  <path id="path2702" class="fil2" d="M9535.37 16257.25l29.49 0 0 -134.36 78.18 0c71.7,0 112.45,-43.14 112.45,-100.77 0,-58.54 -40.75,-98.75 -105.79,-98.75l-114.33 0 0 333.88zm29.49 -159.72l0 -148.96 81.51 0c46.85,0 79.67,28.56 79.67,73.55 0,50.59 -34.66,75.41 -90.43,75.41l-70.75 0zm324.2 165.81c30.94,0 63.19,-9.42 84.71,-40.34l-20.59 -13.01c-12.61,15.39 -32.26,29.86 -62.25,29.86 -45.01,0 -71.16,-26.15 -71.16,-67.44l0 -27.62 158.77 0 0 -34.12c0,-59.99 -37.97,-91.86 -90.02,-91.86 -55.74,0 -97.44,35.58 -97.44,99.83l0 50.59c0,64.12 40.75,94.11 97.98,94.11zm-69.29 -138.2l0 -12.6c0,-37.45 23.9,-70.78 66.5,-70.78 44.88,0 65.06,30.95 65.06,67.45l0 15.93 -131.56 0zm214.92 132.11l27.61 0 0 -129.7c1.46,-52.97 36.53,-81.12 81.54,-81.12 5.56,0 13.52,0 21.49,1.46l0 -25.77c-4.64,-0.93 -10.76,-1.46 -16.32,-1.46 -31.48,0 -66.11,11.29 -86.71,52.97l-0.92 0 0 -49.64 -26.69 0 0 233.26zm196.34 0l27.11 0 0 -210.82 57.2 0 0 -21.91 -57.2 0 0 -45.54c0,-28 15.9,-38.76 35.58,-38.76 9.81,0 15.9,0.36 23.87,2.79l0 -24.44c-7.97,-1.87 -16.32,-2.79 -25.2,-2.79 -39.45,0 -61.36,23.49 -61.36,65.58l0 43.16 -44.59 0 0 21.91 44.59 0 0 210.82zm211.62 6.09c53.77,0 93.6,-31.84 93.6,-92.27l0 -60.4c0,-59.07 -37.04,-91.86 -94.52,-91.86 -53.49,0 -94.65,31.46 -94.65,92.27l0 62.79c0,59.09 38.37,89.47 95.57,89.47zm0 -23.49c-45.93,0 -67.96,-27.07 -67.96,-66.91l0 -62.78c0,-41.7 22.95,-67.86 67.04,-67.86 45.8,0 66.91,28.03 66.91,65.99l0 63.19c0,44.6 -22.03,68.37 -65.99,68.37zm151.21 17.4l27.64 0 0 -129.7c1.46,-52.97 36.53,-81.12 81.54,-81.12 5.56,0 13.52,0 21.49,1.46l0 -25.77c-4.64,-0.93 -10.76,-1.46 -16.32,-1.46 -31.48,0 -66.11,11.29 -86.71,52.97l-0.92 0 0 -49.64 -26.72 0 0 233.26zm171.94 0l27.61 0 0 -141.92c0,-45.95 37.97,-72.62 70.75,-72.62 33.72,0 52.44,20.19 53.39,60.4l0 154.14 27.2 0 0 -143.38c1.34,-41.16 34.12,-71.16 70.24,-71.16 33.71,0 53.9,19.65 53.9,61.86l0 152.68 27.08 0 0 -167.69c0,-41.67 -27.08,-71.16 -72.63,-71.16 -34.65,0 -65.98,17.8 -82.84,50.98l-0.54 0c-6.5,-27.08 -27.61,-50.98 -65.96,-50.98 -33.74,0 -64.65,16.88 -81,50.06l-0.92 0 0 -44.47 -26.28 0 0 233.26zm399.05 0l27.1 0 0 -233.26 -27.1 0 0 233.26zm0 -289.42l27.1 0 0 -47.79 -27.1 0 0 47.79zm97.44 289.42l27.1 0 0 -139.53c0,-45.93 35.18,-75.01 72.09,-75.01 31.86,0 53.51,18.32 53.51,61.86l0 152.68 27.61 0 0 -165.28c0,-40.78 -23.9,-73.57 -72.62,-73.57 -32.81,0 -64.14,16.88 -80.59,50.06l-0.94 0 0 -44.47 -26.16 0 0 233.26zm323.69 96.52c64.12,0 98.78,-42.22 98.78,-96.52l0 -233.26 -26.7 0 0 42.21c-12.19,-34.25 -47.77,-47.8 -73.54,-47.8 -41.68,0 -84.84,28.03 -84.84,87.1l0 69.31c0,48.19 30.94,80.05 82.46,80.05 29.61,0 59.99,-13.01 75.92,-46.34l0 51.52c0,44.06 -27.2,71.16 -70.21,71.16 -24.82,0 -44.09,-9.3 -59.1,-28.95l-24.82 11.15c17.8,27.61 48.72,40.37 82.05,40.37zm4.69 -121.35c-40.78,0 -62.81,-25.23 -62.81,-57.61l0 -71.16c0,-42.62 31.86,-61.35 62.27,-61.35 32.79,0 67.96,24.82 67.96,69.7l0 44.63c0,52.43 -34.63,75.79 -67.42,75.79z"/>
  <path id="path2704" class="fil2" d="M9950.25 16894.19l29.62 0 0 -308.13 112.32 0 0 -25.75 -254.77 0 0 25.75 112.83 0 0 308.13zm188.92 0l27.11 0 0 -139.53c0,-45.93 35.17,-75 72.08,-75 31.87,0 53.51,18.31 53.51,61.86l0 152.67 27.62 0 0 -165.27c0,-40.78 -23.9,-73.57 -72.62,-73.57 -31.87,0 -63.2,16.88 -79.13,50.05l-1.46 0 0 -145.63 -27.11 0 0 334.42zm334.45 6.1c30.94,0 63.2,-9.43 84.71,-40.34l-20.59 -13.02c-12.61,15.4 -32.25,29.87 -62.25,29.87 -45.01,0 -71.16,-26.15 -71.16,-67.45l0 -27.61 158.77 0 0 -34.12c0,-59.99 -37.97,-91.86 -90.02,-91.86 -55.74,0 -97.44,35.58 -97.44,99.82l0 50.6c0,64.11 40.75,94.11 97.98,94.11zm-69.29 -138.2l0 -12.6c0,-37.45 23.9,-70.78 66.5,-70.78 44.88,0 65.06,30.95 65.06,67.45l0 15.93 -131.56 0zm280.52 137.28c28.54,0 59.87,-6.1 79.13,-42.22l0.92 0c0,7.05 0.92,29.08 1.85,37.04l27.23 0c-1.46,-10.34 -3.33,-45 -3.33,-58.55l0 -113.38c0,-50.57 -40.22,-66.91 -85.64,-66.91 -43.52,0 -86.68,17.26 -86.68,63.73l0 7.05 25.23 0 0 -7.59c0,-30.4 30.92,-40.75 59.99,-40.75 35.2,0 59.48,12.63 59.48,49.26l0 35.96 -68.37 0c-38.37,0 -86.68,17.4 -86.68,69.86 0,43.01 34.66,66.5 76.87,66.5zm7.46 -21.49c-29.49,0 -56.69,-15.01 -56.69,-46.47 0,-39.83 32.79,-47.8 64.65,-47.8l62.76 0 0 26.28c0,40.22 -23.9,67.99 -70.75,67.99l0.03 0zm238.94 20.57c9.81,0 28.54,-1.46 43.55,-6.13l0 -23.87c-11.3,2.77 -23.51,5.17 -35.71,5.17 -23.77,0 -36.53,-7.96 -36.53,-33.32l0 -156.39 69.32 0 0 -22.44 -69.32 0 0 -73.54 -27.61 0 0 73.54 -43.52 0 0 22.44 43.52 0 0 163.94c0,39.3 27.23,50.6 56.3,50.6zm89.33 -4.26l27.61 0 0 -129.69c1.46,-52.97 36.53,-81.13 81.54,-81.13 5.56,0 13.52,0 21.49,1.46l0 -25.77c-4.64,-0.92 -10.76,-1.46 -16.32,-1.46 -31.48,0 -66.11,11.3 -86.71,52.98l-0.92 0 0 -49.65 -26.69 0 0 233.26zm258.62 6.1c30.94,0 63.19,-9.43 84.71,-40.34l-20.59 -13.02c-12.61,15.4 -32.25,29.87 -62.25,29.87 -45.01,0 -71.16,-26.15 -71.16,-67.45l0 -27.61 158.77 0 0 -34.12c0,-59.99 -37.97,-91.86 -90.02,-91.86 -55.74,0 -97.44,35.58 -97.44,99.82l0 50.6c0,64.11 40.75,94.11 97.98,94.11zm-69.29 -138.2l0 -12.6c0,-37.45 23.9,-70.78 66.5,-70.78 44.88,0 65.06,30.95 65.06,67.45l0 15.93 -131.56 0z"/>
 </g>
</svg>
