<?xml version="1.0" encoding="UTF-8"?>
<!DOCTYPE svg PUBLIC "-//W3C//DTD SVG 1.1//EN" "http://www.w3.org/Graphics/SVG/1.1/DTD/svg11.dtd">
<!-- Creator: CorelDRAW -->
<svg xmlns="http://www.w3.org/2000/svg" xml:space="preserve" width="210mm" height="297mm" version="1.1" style="shape-rendering:geometricPrecision; text-rendering:geometricPrecision; image-rendering:optimizeQuality; fill-rule:evenodd; clip-rule:evenodd"
viewBox="0 0 21000 29700"
 xmlns:xlink="http://www.w3.org/1999/xlink"
 xmlns:xodm="http://www.corel.com/coreldraw/odm/2003">
 <defs>
  <style type="text/css">
   <![CDATA[
    .fil2 {fill:#1A1A18;fill-rule:nonzero}
    .fil0 {fill:#1B3C87;fill-rule:nonzero}
    .fil1 {fill:white;fill-rule:nonzero}
   ]]>
  </style>
 </defs>
 <g id="Layer_x0020_1">
  <metadata id="CorelCorpID_0Corel-Layer"/>
  <path id="path1936" class="fil0" d="M11196.67 13294.07c0,775.99 -629.05,1405.05 -1405.05,1405.05 -775.99,0 -1405.05,-629.06 -1405.05,-1405.05 0,-775.99 629.06,-1405.05 1405.05,-1405.05 776,0 1405.05,629.06 1405.05,1405.05z"/>
  <g>
   <path id="path1938" class="fil1" d="M9940.07 13140.86l-510.99 0 0 -389.49 510.99 0 0 389.49zm609.85 35.15l-204.06 -324.05c-7.33,-11.76 -14.91,-23.41 -22.88,-34.99 -7.86,-11.2 -16.34,-22.24 -24.85,-33.15 -8.86,-10.76 -17.88,-21.34 -27.28,-31.46l-14.65 -15.19 -16.45 -15.16 -71.46 62.89 16.44 30.35c5.69,10.58 11.3,21.24 16.63,31.92 5.43,10.73 10.75,21.41 15.72,32.35 5.23,10.74 10.12,21.5 14.91,32.43 18.88,43.55 35.15,87.74 47.16,132.31 12.12,44.62 18.8,89.99 19.98,135.1l-1.18 151.44 -0.53 154.26 0 86.84c0.07,2.28 0,1.36 0,2 -0.18,0.36 0,0.64 0,1 -0.18,1.08 -0.36,2.26 -0.54,3.43 -0.72,2.26 -1.82,4.33 -3.43,6.23 -3.36,3.79 -7.61,6.07 -12.84,6.61l-76.18 1.07c-38.14,0.46 -76.36,1 -114.58,1.82l0 -963.5c0,-38.86 -31.56,-70.32 -70.32,-70.32l-669.91 0c-38.79,0 -70.24,31.46 -70.24,70.32l0 1242 -105.62 0 0 155.36 1021.6 0 0 -155.36 -105.54 0 0 -136.17c38.22,0.82 76.44,1.35 114.58,1.79l77.98 0.92c46.47,0.28 92.81,-21.06 123.27,-56.02 15.37,-17.45 27.12,-38.14 34.07,-60.48 3.53,-11.3 5.86,-22.77 6.86,-34.33l0.54 -8.68 0.28 -7.69 0 -86.84 -0.64 -154.26 -0.46 -64.06c59.53,-10.58 103.56,-90.73 103.56,-90.73l0.06 0zm0 0l0 0 0 0z"/>
  </g>
  <path id="path2674" class="fil2" d="M8603.31 15638.7l29.49 0 0 -134.36 78.18 0c71.7,0 112.45,-43.14 112.45,-100.77 0,-58.54 -40.75,-98.75 -105.79,-98.75l-114.33 0 0 333.88zm29.49 -159.72l0 -148.96 81.51 0c46.85,0 79.67,28.56 79.67,73.55 0,50.59 -34.66,75.41 -90.43,75.41l-70.75 0zm324.2 165.81c30.94,0 63.19,-9.42 84.71,-40.34l-20.6 -13.01c-12.6,15.39 -32.25,29.86 -62.24,29.86 -45.01,0 -71.17,-26.15 -71.17,-67.44l0 -27.62 158.77 0 0 -34.12c0,-59.99 -37.96,-91.86 -90.01,-91.86 -55.74,0 -97.45,35.58 -97.45,99.83l0 50.59c0,64.12 40.76,94.11 97.99,94.11zm-69.3 -138.2l0 -12.6c0,-37.45 23.9,-70.78 66.5,-70.78 44.88,0 65.07,30.95 65.07,67.45l0 15.93 -131.57 0zm290.88 136.36c9.81,0 28.53,-1.46 43.54,-6.12l0 -23.88c-11.29,2.77 -23.51,5.18 -35.7,5.18 -23.78,0 -36.53,-7.97 -36.53,-33.33l0 -156.39 69.31 0 0 -22.44 -69.29 0 0 -73.54 -27.64 0 0 73.54 -43.52 0 0 22.44 43.52 0 0 163.95c0,39.29 27.23,50.59 56.31,50.59zm89.32 -4.25l27.64 0 0 -129.7c1.46,-52.97 36.53,-81.12 81.54,-81.12 5.56,0 13.52,0 21.49,1.46l0 -25.77c-4.64,-0.93 -10.76,-1.46 -16.32,-1.46 -31.48,0 -66.11,11.29 -86.71,52.97l-0.92 0 0 -49.64 -26.72 0 0 233.26zm256.75 6.09c53.77,0 93.6,-31.84 93.6,-92.27l0 -60.4c0,-59.07 -37.04,-91.86 -94.52,-91.86 -53.49,0 -94.65,31.46 -94.65,92.27l0 62.79c0,59.09 38.37,89.47 95.57,89.47zm0 -23.49c-45.93,0 -67.96,-27.07 -67.96,-66.91l0 -62.78c0,-41.7 22.95,-67.86 67.04,-67.86 45.8,0 66.91,28.03 66.91,65.99l0 63.19c0,44.6 -22.03,68.37 -65.99,68.37zm205.52 19.78c10.35,0 23.49,-1.46 34.66,-4.76l0 -20.98c-7.43,0.92 -16.34,2.25 -25.77,2.25 -23.36,0 -33.71,-14.06 -33.71,-32.25l0 -281.06 -27.62 0 0 279.19c0,28.95 11.69,57.61 52.44,57.61zm196.86 -2.38l29.49 0 0 -134.36 78.18 0c71.7,0 112.45,-43.14 112.45,-100.77 0,-58.54 -40.75,-98.75 -105.79,-98.75l-114.33 0 0 333.88zm29.49 -159.72l0 -148.96 81.53 0c46.85,0 79.67,28.56 79.67,73.55 0,50.59 -34.66,75.41 -90.43,75.41l-70.77 0zm317.18 165.3c32.79,0 64.11,-16.34 80.58,-50.05l0.9 0 0 44.47 26.18 0 0 -233.26 -27.1 0 0 139.53c0,45.93 -35.17,75 -71.7,75 -32.38,0 -53.9,-18.31 -53.9,-61.86l0 -152.67 -27.61 0 0 165.27c0,40.78 23.9,73.57 72.62,73.57l0.03 0zm176.54 -5.58l27.62 0 0 -141.92c0,-45.95 37.96,-72.62 70.75,-72.62 33.71,0 52.44,20.19 53.38,60.4l0 154.14 27.23 0 0 -143.38c1.34,-41.16 34.12,-71.16 70.24,-71.16 33.71,0 53.9,19.65 53.9,61.87l0 152.67 27.05 0 0 -167.69c0,-41.67 -27.08,-71.16 -72.62,-71.16 -34.66,0 -65.99,17.81 -82.84,50.98l-0.54 0c-6.51,-27.08 -27.62,-50.98 -65.96,-50.98 -33.74,0 -64.66,16.88 -81,50.06l-0.92 0 0 -44.47 -26.29 0 0 233.26zm399.05 90.81l27.1 0 0 -132.49 1.46 0c9.82,30.38 40.22,47.77 70.63,47.77 43.67,0 86.68,-25.74 86.68,-88.53l0 -76.74c0,-48.72 -33.17,-79.67 -82.43,-79.67 -26.69,0 -59.89,14.09 -76.34,47.26l-0.94 0 0 -41.67 -26.16 0 0 324.07zm95.5 -108.21c-36.5,0 -68.37,-28.53 -68.37,-73.41l0 -47.8c0,-48.72 35.58,-76.34 67.96,-76.34 39.3,0 62.66,25.23 62.66,57.64l0 78.59c0,42.21 -31.72,61.32 -62.25,61.32z"/>
 </g>
</svg>
