<?xml version="1.0" encoding="UTF-8"?>
<!DOCTYPE svg PUBLIC "-//W3C//DTD SVG 1.1//EN" "http://www.w3.org/Graphics/SVG/1.1/DTD/svg11.dtd">
<!-- Creator: CorelDRAW -->
<svg xmlns="http://www.w3.org/2000/svg" xml:space="preserve" width="210mm" height="297mm" version="1.1" style="shape-rendering:geometricPrecision; text-rendering:geometricPrecision; image-rendering:optimizeQuality; fill-rule:evenodd; clip-rule:evenodd"
viewBox="0 0 21000 29700"
 xmlns:xlink="http://www.w3.org/1999/xlink"
 xmlns:xodm="http://www.corel.com/coreldraw/odm/2003">
 <defs>
  <style type="text/css">
   <![CDATA[
    .fil2 {fill:#1A1A18;fill-rule:nonzero}
    .fil0 {fill:#1B3C87;fill-rule:nonzero}
    .fil1 {fill:white;fill-rule:nonzero}
   ]]>
  </style>
 </defs>
 <g id="Layer_x0020_1">
  <metadata id="CorelCorpID_0Corel-Layer"/>
  <path id="path1922" class="fil0" d="M12500.39 14426.01c0,775.99 -629.05,1405.05 -1405.05,1405.05 -775.99,0 -1405.05,-629.06 -1405.05,-1405.05 0,-776 629.06,-1405.05 1405.05,-1405.05 776,0 1405.05,629.05 1405.05,1405.05z"/>
  <path id="path1972" class="fil1" d="M10939.34 14016.61l-149.93 217.33 -115.94 20.98c-35.43,-34 -85.48,-51.98 -137.71,-44.11l-10.12 1.35c-27.92,4.26 -53.05,15.19 -74.11,31l-83.76 -69.14 -78.18 -233.59 -109.54 40.03 83.61 248.51c3.51,9.68 9.58,18.34 17.6,24.84l107.92 89.12c-3.53,17.88 -4.25,36.51 -1.36,55.49l34.33 238.74c4.97,33.25 29.56,213.36 29.56,213.36l-215.61 150.47 82.41 117.19 242.91 -169.6c17.35,-12.22 28.36,-31.36 30.26,-52.52l10.4 -120.44c2.07,-0.28 4.15,-0.36 6.25,-0.64l10.12 -1.54c22.49,-3.36 43.26,-11.12 61.45,-22.31l99.03 111.4 -34.35 281.96 142.25 17.45 38.14 -314.14c2.61,-20.41 -3.79,-40.93 -17.55,-56.38 0,0 -149.37,-192.04 -151.18,-204.13l-32.15 -222.86 110.05 -19.88c15.36,-2.72 28.92,-11.48 37.78,-24.31l163.66 -237.49 -96.24 -66.14z"/>
  <path id="path1974" class="fil1" d="M10545.39 14168.95c87.66,0 158.69,-71.04 158.69,-158.69 0,-85.84 -68.32,-155.7 -153.64,-158.31 -0.82,-1.46 -1.62,-2.72 -2.44,-3.9 -2.25,-3.61 -6.22,-9.29 -5.33,-13.83 1.36,-5.05 7.05,-6.04 11.76,-7.48 5.41,-1.72 11.38,-4.61 15.99,-8.04 13.29,-9.94 19.16,-34.07 4.68,-45.65 -9.47,-7.76 -20.59,-10.76 -32.61,-11.76 -2.89,-0.18 -7.04,-0.72 -10.65,-0.18 -4.79,0.54 -8.79,2.46 -9.15,8.15 -0.36,4.79 3.36,8.86 8.15,9.22 5.61,0.28 29.89,6.22 26.28,14.91 -1.79,4.43 -8.4,5.51 -12.37,6.4 -6.15,1.54 -12.02,3.36 -17.27,6.79 -16.8,10.94 -15.9,31 -9.76,47.62 -74.36,13.12 -130.92,77.9 -130.92,156.06 -0.1,87.65 70.93,158.69 158.59,158.69z"/>
  <path id="path1976" class="fil1" d="M12030.34 14425.52l-162.85 -26.38 -145.93 -139.18c-33.35,-50.23 -93.27,-80.15 -157.16,-71.93l-10.12 1.26c-37.86,4.79 -70.85,22.33 -95.8,47.44l-105 -68.14 -60.28 -204.49 -111.97 32.89 66.35 225.29c3.97,13.48 12.55,24.95 24.31,32.64l139.71 90.45c-0.46,9.04 -0.18,17.98 0.98,27.1l26.2 204.78 -68.75 202.16c0,0 19.95,20.52 58.27,40.04l-86.02 303.81 138 38.68 87.2 -308.07c18.52,0.47 38.4,-0.46 59.37,-3.07 7.13,-0.92 13.74,-2.28 20.5,-3.43l14.11 54.56c2.36,9.04 6.51,17.55 12.12,24.95l143.94 190.51 114.68 -85.94 -135.56 -179.21 -15.17 -58.74c53.31,-36.79 75.91,-76.54 75.91,-76.54l-84.49 -190.31 -8.22 -64.34 35.32 33.71c8.59,8.12 19.42,13.55 31,15.34l180.65 29.28c3.15,0.54 9.4,0.82 9.4,0.82l9.3 -115.94z"/>
  <path id="path1978" class="fil1" d="M11549.7 14148.48c87.02,-2.15 155.98,-74 154.7,-160.84 35.17,23.13 61.55,65.96 61.55,65.96 34.07,-13.66 40.94,-63.81 40.94,-63.81 -32,-38.86 -76.83,-48.62 -110.26,-49.52 -21.33,-64.78 -82.97,-110.86 -154.62,-109.07 -87.58,2.07 -156.87,74.75 -154.79,162.41 2.15,87.65 74.82,156.95 162.48,154.87z"/>
  <g>
   <path id="path1980" class="fil1" d="M11086.3 13736.37c-19.24,-15.91 -55.02,-36.69 -120.19,-52.95 0.1,-1 0.28,-2 0.28,-3 0,-12.91 -5.97,-24.21 -15.27,-31.71 7.41,-13.09 21.42,-34.97 40.22,-51.77 55.13,16.16 95.52,67.21 95.52,127.49 0,4.07 -0.17,8.04 -0.53,11.94l-0.03 0zm-188.51 -26.03c7.33,6.79 17.01,11.04 27.74,11.04 6.15,0 12.04,-1.54 17.37,-4.07 16.34,25.67 41.12,70.39 58.64,131.31 -14.91,5.68 -30.9,8.94 -47.7,8.94 -46.65,0 -87.66,-24.24 -111.43,-60.56l55.38 -86.66zm-72.54 -19.6c10.29,-39.14 37.93,-71.31 74.18,-87.65 1.61,11.11 4.69,24.66 9.66,39.75 -13.99,6.15 -23.85,19.88 -24.49,36.15 -25.21,1.82 -45.37,6.86 -59.35,11.75zm128.59 -140.27c-95.98,0 -174.06,78 -174.06,173.96 0,95.98 78.08,174.06 174.06,174.06 95.96,0 173.96,-78.08 173.96,-174.06 0,-95.96 -78,-173.96 -173.96,-173.96z"/>
  </g>
  <g>
   <path id="path2716" class="fil2" d="M10011.01 16773.81l29.48 0 0 -134.36 78.18 0c71.7,0 112.46,-43.13 112.46,-100.77 0,-58.53 -40.76,-98.75 -105.8,-98.75l-114.32 0 0 333.88zm29.48 -159.72l0 -148.95 81.51 0c46.86,0 79.67,28.56 79.67,73.54 0,50.59 -34.66,75.41 -90.42,75.41l-70.76 0zm299.76 162.1c10.35,0 23.49,-1.46 34.66,-4.76l0 -20.98c-7.43,0.92 -16.34,2.25 -25.77,2.25 -23.36,0 -33.71,-14.06 -33.71,-32.25l0 -281.06 -27.61 0 0 279.19c0,28.95 11.68,57.61 52.43,57.61zm146.71 2.8c28.53,0 59.86,-6.1 79.13,-42.22l0.92 0c0,7.04 0.92,29.07 1.84,37.04l27.26 0c-1.46,-10.35 -3.33,-45.01 -3.33,-58.56l0 -113.38c0,-50.56 -40.22,-66.9 -85.64,-66.9 -43.52,0 -86.68,17.26 -86.68,63.73l0 7.04 25.23 0 0 -7.58c0,-30.41 30.92,-40.76 59.99,-40.76 35.2,0 59.48,12.63 59.48,49.26l0 35.97 -68.39 0c-38.37,0 -86.69,17.39 -86.69,69.86 0,43.01 34.66,66.5 76.88,66.5zm7.43 -21.5c-29.49,0 -56.69,-15.01 -56.69,-46.46 0,-39.84 32.79,-47.8 64.65,-47.8l62.79 0 0 26.28c0,40.22 -23.9,67.98 -70.75,67.98zm167.68 112.3c27.62,0 56.28,-9.29 70.75,-52.84l102.11 -276.4 -27.62 0 -69.31 193.43 -0.54 0 -72.11 -193.43 -30 0 88.56 228.09 -17.39 45.39c-7.43,20.18 -22.83,32.4 -43.55,32.4 -9.81,0 -20.06,-1.46 -29.46,-3.71l0 23.9c10.73,2.25 20.16,3.17 28.54,3.17l0.02 0zm294.72 0.54c64.11,0 98.77,-42.21 98.77,-96.52l0 -233.26 -26.69 0 0 42.21c-12.19,-34.24 -47.77,-47.79 -73.54,-47.79 -41.68,0 -84.85,28.02 -84.85,87.09l0 69.32c0,48.18 30.95,80.05 82.46,80.05 29.62,0 60,-13.01 75.93,-46.34l0 51.51c0,44.06 -27.2,71.16 -70.21,71.16 -24.83,0 -44.09,-9.29 -59.1,-28.94l-24.82 11.14c17.8,27.62 48.72,40.37 82.05,40.37zm4.66 -121.32c-40.78,0 -62.81,-25.23 -62.81,-57.61l0 -71.16c0,-42.62 31.86,-61.35 62.27,-61.35 32.79,0 67.96,24.82 67.96,69.7l0 44.63c0,52.43 -34.63,75.79 -67.42,75.79zm162.48 24.8l27.62 0 0 -129.69c1.46,-52.98 36.52,-81.13 81.53,-81.13 5.56,0 13.53,0 21.49,1.46l0 -25.77c-4.63,-0.92 -10.75,-1.46 -16.31,-1.46 -31.49,0 -66.12,11.3 -86.71,52.97l-0.93 0.03 0 -49.64 -26.69 -0.03 0 233.26zm256.75 6.1c53.77,0 93.6,-31.84 93.6,-92.27l0 -60.41c0,-59.07 -37.04,-91.86 -94.52,-91.86 -53.49,0 -94.65,31.46 -94.65,92.27l0 62.79c0,59.1 38.37,89.48 95.57,89.48zm0 -23.47c-45.93,0 -67.96,-27.07 -67.96,-66.91l0 -62.78c0,-41.71 22.96,-67.86 67.04,-67.86 45.8,0 66.91,28.02 66.91,65.99l0 63.19c0,44.6 -22.03,68.37 -65.99,68.37zm222.92 22.96c32.78,0 64.11,-16.35 80.58,-50.06l0.93 0 0 44.47 26.15 0 0 -233.26 -27.08 0 0 139.53c0,45.93 -35.17,75.01 -71.7,75.01 -32.37,0 -53.89,-18.32 -53.89,-61.87l0 -152.67 -27.62 0 0 165.28c0,40.78 23.9,73.57 72.63,73.57zm177.08 -5.59l27.1 0 0 -139.53c0,-45.93 35.17,-75.01 72.09,-75.01 31.86,0 53.51,18.32 53.51,61.87l0 152.67 27.61 0 0 -165.28c0,-40.78 -23.9,-73.56 -72.62,-73.56 -32.81,0 -64.14,16.88 -80.59,50.05l-0.95 0 0 -44.47 -26.15 0 0 233.26zm319.43 6.1c25.77,0 58.95,-14.6 75.83,-52.03l0.95 0 0 45.93 26.66 0 0 -333.5 -27.59 0 0 142.45 -0.97 0.03c-9.81,-30.53 -40.75,-47.8 -70.62,-47.8 -44.06,0 -86.69,25.77 -86.69,88.56l0 76.74c0,48.72 32.79,79.64 82.43,79.64l0 -0.02zm8 -23.88c-39.43,0 -62.79,-25.36 -62.79,-57.63l0 -78.72c0,-42.09 32.25,-61.35 62.27,-61.35 37.05,0 68.89,28.56 68.89,73.57l-0.03 45.93c0,48.72 -35.58,78.2 -68.37,78.2l0.03 0zm0 0l0 0 0 0z"/>
  </g>
 </g>
</svg>
