<?xml version="1.0" encoding="UTF-8"?>
<!DOCTYPE svg PUBLIC "-//W3C//DTD SVG 1.1//EN" "http://www.w3.org/Graphics/SVG/1.1/DTD/svg11.dtd">
<!-- Creator: CorelDRAW -->
<svg xmlns="http://www.w3.org/2000/svg" xml:space="preserve" width="210mm" height="297mm" version="1.1" style="shape-rendering:geometricPrecision; text-rendering:geometricPrecision; image-rendering:optimizeQuality; fill-rule:evenodd; clip-rule:evenodd"
viewBox="0 0 21000 29700"
 xmlns:xlink="http://www.w3.org/1999/xlink"
 xmlns:xodm="http://www.corel.com/coreldraw/odm/2003">
 <defs>
  <style type="text/css">
   <![CDATA[
    .fil2 {fill:#1A1A18;fill-rule:nonzero}
    .fil0 {fill:#1B3C87;fill-rule:nonzero}
    .fil1 {fill:white;fill-rule:nonzero}
   ]]>
  </style>
 </defs>
 <g id="Layer_x0020_1">
  <metadata id="CorelCorpID_0Corel-Layer"/>
  <path id="path1910" class="fil0" d="M11176.47 12605.94c0,776 -629.06,1405.05 -1405.05,1405.05 -775.99,0 -1405.05,-629.05 -1405.05,-1405.05 0,-775.99 629.06,-1405.05 1405.05,-1405.05 775.99,0 1405.05,629.06 1405.05,1405.05z"/>
  <path id="path1912" class="fil1" d="M10008.93 12971.67l-237.66 -150.19 -237.67 150.19 69.39 -272.46 -211.56 -179.67 275.81 -18.16 104.03 -261.24 104 261.24 276.09 18.16 -211.85 179.67 69.42 272.46zm417.6 -877.38c-271.38,0 -479.33,-77.54 -655.19,-248.53 -175.75,170.99 -383.7,248.53 -655.08,248.53 0,445.23 -92.07,1082.97 655.08,1342.05 747.25,-259.08 655.19,-896.82 655.19,-1342.05z"/>
  <path id="path2670" class="fil2" d="M8441.01 14945.86l29.51 0 0 -134.36 78.16 0c71.7,0 112.45,-43.14 112.45,-100.77 0,-58.54 -40.75,-98.75 -105.79,-98.75l-114.33 0 0 333.88zm29.51 -159.72l0 -148.96 81.49 0c46.85,0 79.67,28.56 79.67,73.55 0,50.59 -34.66,75.41 -90.43,75.41l-70.73 0zm322.31 165.81c53.77,0 93.6,-31.84 93.6,-92.27l0 -60.4c0,-59.07 -37.04,-91.86 -94.52,-91.86 -53.49,0 -94.66,31.46 -94.66,92.27l0 62.79c0,59.09 38.38,89.47 95.58,89.47zm0 -23.49c-45.93,0 -67.96,-27.07 -67.96,-66.91l0 -62.78c0,-41.7 22.95,-67.86 67.04,-67.86 45.8,0 66.91,28.03 66.91,65.99l0 63.19c0,44.6 -22.03,68.37 -65.99,68.37zm205.52 19.78c10.35,0 23.49,-1.46 34.66,-4.76l0 -20.98c-7.43,0.92 -16.35,2.25 -25.77,2.25 -23.37,0 -33.72,-14.06 -33.72,-32.25l0 -281.06 -27.61 0 0 279.19c0,28.95 11.68,57.61 52.44,57.61zm82.56 -2.38l27.1 0 0 -233.26 -27.1 0 0 233.26zm0 -289.41l27.1 0 0 -47.8 -27.1 0 0 47.8zm179.39 295.5c55.23,0 88.55,-30.91 88.55,-77.25l0 -6.1 -26.71 0 0 7.97c0,24.28 -17.4,51.89 -61.46,51.89 -46.34,0 -65.45,-28.94 -65.45,-69.7l0 -56.69c0,-40.75 21.5,-71.7 65.04,-71.7 44.09,0 61.87,28.16 61.87,52.06l0 9.29 26.69 0 0 -7.04c0,-46.34 -34.25,-77.26 -89.1,-77.26 -56.15,0 -93.19,36.12 -93.19,96.52l0 54.28c0,60.02 35.71,93.73 93.73,93.73l0.03 0zm227.65 0c30.94,0 63.19,-9.42 84.71,-40.34l-20.59 -13.01c-12.61,15.39 -32.25,29.86 -62.25,29.86 -45.01,0 -71.16,-26.15 -71.16,-67.44l0 -27.62 158.77 0 0 -34.12c0,-59.99 -37.97,-91.86 -90.02,-91.86 -55.74,0 -97.44,35.58 -97.44,99.83l0 50.59c0,64.12 40.75,94.11 97.98,94.11zm-69.29 -138.2l0 -12.6c0,-37.45 23.9,-70.78 66.5,-70.78 44.88,0 65.06,30.95 65.06,67.45l0 15.93 -131.56 0zm432.25 137.69c70.24,0 114.83,-38.78 114.83,-94.52 0,-51.13 -27.74,-75.42 -67.03,-86.71l-65.58 -19.24c-43.96,-13.01 -57.64,-33.74 -57.64,-61.35 0,-39.81 37.97,-58.53 75.01,-58.53 39.83,0 67.44,16.85 82.84,45.93l25.36 -10.35c-17.78,-42.63 -58.53,-60.82 -108.72,-60.82 -58.94,0 -103.95,34.12 -103.95,86.56 0,44.09 24.42,69.83 71.68,83.92l65.6 19.24c30.92,9.83 53.36,25.23 53.36,64.52 0,40.76 -36.5,65.58 -83.89,65.58 -48.21,0 -82.85,-23.36 -96.4,-62.66l-27.23 9.84c14.48,50.57 60.94,78.59 121.76,78.59zm244.55 -1.33c9.82,0 28.54,-1.46 43.55,-6.12l0 -23.88c-11.3,2.77 -23.51,5.18 -35.71,5.18 -23.77,0 -36.53,-7.97 -36.53,-33.33l0 -156.39 69.32 0 0 -22.44 -69.29 0 0 -73.54 -27.64 0 0 73.54 -43.52 0 0 22.44 43.52 0 0 163.95c0,39.29 27.23,50.59 56.3,50.59zm154.93 0.92c28.54,0 59.87,-6.09 79.13,-42.21l0.95 0c0,7.04 0.92,29.07 1.84,37.04l27.21 0c-1.46,-10.35 -3.33,-45.01 -3.33,-58.56l0 -113.38c0,-50.56 -40.22,-66.91 -85.64,-66.91 -43.52,0 -86.68,17.27 -86.68,63.74l0 7.04 25.23 0 0 -7.58c0,-30.41 30.92,-40.76 59.99,-40.76 35.2,0 59.48,12.63 59.48,49.26l0 35.97 -68.37 0c-38.37,0 -86.68,17.39 -86.68,69.85 0,43.01 34.66,66.5 76.87,66.5zm7.43 -21.49c-29.48,0 -56.69,-15.01 -56.69,-46.47 0,-39.83 32.79,-47.8 64.66,-47.8l62.78 0 0 26.28c0,40.22 -23.9,67.99 -70.75,67.99zm238.97 20.57c9.81,0 28.54,-1.46 43.55,-6.12l0 -23.88c-11.3,2.77 -23.51,5.18 -35.71,5.18 -23.77,0 -36.53,-7.97 -36.53,-33.33l0 -156.39 69.35 0 0 -22.44 -69.35 0 0 -73.54 -27.61 0 0 73.54 -43.52 0 0 22.44 43.52 0 0 163.95c0,39.29 27.23,50.59 56.3,50.59zm90.79 -4.25l27.1 0 0 -233.26 -27.1 0 0 233.26zm0 -289.41l27.1 0 0 -47.8 -27.1 0 0 47.8zm181.77 295.5c53.77,0 93.6,-31.84 93.6,-92.27l0 -60.4c0,-59.07 -37.04,-91.86 -94.52,-91.86 -53.49,0 -94.65,31.46 -94.65,92.27l0 62.79c0,59.09 38.37,89.47 95.57,89.47zm0 -23.49c-45.93,0 -67.96,-27.07 -67.96,-66.91l0 -62.78c0,-41.7 22.95,-67.86 67.04,-67.86 45.8,0 66.91,28.03 66.91,65.99l0 63.19c0,44.6 -22.03,68.37 -65.99,68.37zm152.65 17.4l27.1 0 0 -139.53c0,-45.93 35.17,-75.01 72.08,-75.01 31.87,0 53.52,18.32 53.52,61.87l0 152.67 27.61 0 0 -165.28c0,-40.78 -23.9,-73.57 -72.62,-73.57 -32.82,0 -64.15,16.88 -80.59,50.06l-0.95 0 0 -44.47 -26.15 0 0 233.26z"/>
 </g>
</svg>
