<?xml version="1.0" encoding="UTF-8"?>
<!DOCTYPE svg PUBLIC "-//W3C//DTD SVG 1.1//EN" "http://www.w3.org/Graphics/SVG/1.1/DTD/svg11.dtd">
<!-- Creator: CorelDRAW -->
<svg xmlns="http://www.w3.org/2000/svg" xml:space="preserve" width="210mm" height="297mm" version="1.1" style="shape-rendering:geometricPrecision; text-rendering:geometricPrecision; image-rendering:optimizeQuality; fill-rule:evenodd; clip-rule:evenodd"
viewBox="0 0 21000 29700"
 xmlns:xlink="http://www.w3.org/1999/xlink"
 xmlns:xodm="http://www.corel.com/coreldraw/odm/2003">
 <defs>
  <style type="text/css">
   <![CDATA[
    .fil2 {fill:#1A1A18;fill-rule:nonzero}
    .fil0 {fill:#1B3C87;fill-rule:nonzero}
    .fil1 {fill:white;fill-rule:nonzero}
   ]]>
  </style>
 </defs>
 <g id="Layer_x0020_1">
  <metadata id="CorelCorpID_0Corel-Layer"/>
  <path id="path1944" class="fil0" d="M11459.33 13348.94c0,775.99 -629.05,1405.05 -1405.05,1405.05 -775.99,0 -1405.05,-629.06 -1405.05,-1405.05 0,-776 629.06,-1405.05 1405.05,-1405.05 776,0 1405.05,629.05 1405.05,1405.05z"/>
  <path id="path1946" class="fil1" d="M9928 13185.99c51.41,-51.41 51.41,-134.74 0,-186.15l-279.43 -279.53 -62.27 62.35 217.43 217.18 -62.27 61.89 -217.15 -217.15 -64.42 64.17 217.5 217.4 -61.09 61.1 -217.43 -217.51 -60.71 60.99 279.42 279.53c51.41,51.41 134.74,51.41 186.15,0l153.37 169.42 -401.15 328.04c-36.89,33.79 -38.15,91.45 -2.82,127.06l30.99 30.99c35.35,35.25 93.27,34.07 126.98,-2.79l358.5 -358.78 324.97 359.04c33.69,37.24 88.56,35.35 124.24,0l58.84 -58.82c35.32,-35.6 39.94,-93.55 3.07,-127.33l-652.72 -591.1zm804.81 -244.71c-49.26,-49.26 -109.36,-75.29 -174.07,-75.29 -76.79,0 -160.2,36.87 -238.82,115.48l-221.86 224.94 186.51 186.51 448.24 -451.64z"/>
  <path id="path2710" class="fil2" d="M8960.91 15725.43l29.51 0 0 -137.66 73.93 0 99.28 137.66 33.77 0 -101.57 -140.07c58.94,-8.35 86.56,-48.72 86.56,-96.52 0,-61.33 -43.55,-97.83 -107.67,-97.83l-113.81 0 0 334.42zm29.51 -162.51l0 -146.55 74.85 0c53.89,0 87.61,23.9 87.61,72.08 0,50.98 -31.33,74.47 -87.07,74.47l-75.39 0zm342.36 168.61c30.94,0 63.19,-9.43 84.71,-40.35l-20.59 -13.01c-12.61,15.39 -32.26,29.87 -62.25,29.87 -45.01,0 -71.16,-26.16 -71.16,-67.45l0 -27.61 158.77 0 0 -34.13c0,-59.99 -37.97,-91.86 -90.02,-91.86 -55.74,0 -97.44,35.59 -97.44,99.83l0 50.59c0,64.12 40.75,94.12 97.98,94.12zm-69.29 -138.2l0 -12.61c0,-37.45 23.9,-70.77 66.5,-70.77 44.88,0 65.06,30.94 65.06,67.44l0 15.94 -131.56 0zm290.87 137.68c43.93,0 88.43,-24.82 88.43,-73.95 0,-34.25 -22.98,-51.51 -55.77,-59.07l-34.66 -7.45c-34.12,-7.43 -52.85,-16.86 -52.85,-41.14 0,-23.9 20.6,-41.3 51.52,-41.3 27.61,0 46.88,7.56 61.73,19.65l18.34 -15.4c-17.8,-18.31 -45,-25.77 -77.82,-25.77 -51.49,0 -80.97,29.49 -80.97,67.45 0,32.79 24.82,51.52 66.12,59.48l25.74 5.59c32.28,6.09 50.05,14.98 50.05,43.54 0,30 -30.4,46.47 -60.4,46.47 -30.92,0 -52.97,-9.42 -72.62,-28.15l-18.73 15.93c21.52,24.83 54.85,34.12 91.89,34.12zm218.66 -1.33c9.81,0 28.53,-1.46 43.55,-6.12l0 -23.87c-11.3,2.76 -23.52,5.17 -35.71,5.17 -23.77,0 -36.53,-7.97 -36.53,-33.33l0 -156.38 69.32 0 0 -22.44 -69.32 0 0 -73.55 -27.62 0 0 73.55 -43.52 0 0 22.44 43.52 0 0 163.94c0,39.3 27.23,50.59 56.31,50.59zm154.95 0.92c28.54,0 59.87,-6.09 79.13,-42.21l0.9 0c0,7.04 0.92,29.07 1.84,37.04l27.23 0c-1.46,-10.35 -3.33,-45.01 -3.33,-58.56l0 -113.38c0,-50.56 -40.22,-66.91 -85.63,-66.91 -43.53,0 -86.69,17.27 -86.69,63.74l0 7.04 25.23 0 0 -7.58c0,-30.41 30.92,-40.76 60,-40.76 35.19,0 59.48,12.63 59.48,49.26l0 35.97 -68.37 0c-38.38,0 -86.69,17.39 -86.69,69.86 0,43 34.66,66.49 76.88,66.49l0.02 0zm7.4 -21.49c-29.48,0 -56.68,-15.01 -56.68,-46.47 0,-39.83 32.78,-47.79 64.65,-47.79l62.79 0 0 26.28c0,40.21 -23.9,67.98 -70.76,67.98zm234.75 21.9c32.79,0 64.12,-16.34 80.59,-50.05l0.9 0 0 44.47 26.18 0 0 -233.26 -27.11 0 0 139.53c0,45.93 -35.17,75 -71.7,75 -32.37,0 -53.89,-18.31 -53.89,-61.86l0 -152.67 -27.62 0 0 165.27c0,40.79 23.9,73.57 72.63,73.57l0.02 0zm175.6 -5.58l27.64 0 0 -129.69c1.46,-52.98 36.53,-81.13 81.54,-81.13 5.56,0 13.52,0 21.49,1.46l0 -25.77c-4.64,-0.92 -10.76,-1.46 -16.32,-1.46 -31.48,0 -66.11,11.3 -86.71,52.97l-0.92 0 0 -49.64 -26.72 0 0 233.26zm230.5 5.17c28.53,0 59.86,-6.09 79.12,-42.21l0.93 0c0,7.04 0.92,29.07 1.84,37.04l27.26 0c-1.46,-10.35 -3.33,-45.01 -3.33,-58.56l0 -113.38c0,-50.56 -40.22,-66.91 -85.64,-66.91 -43.52,0 -86.68,17.27 -86.68,63.74l0 7.04 25.23 0 0 -7.58c0,-30.41 30.92,-40.76 59.99,-40.76 35.2,0 59.48,12.63 59.48,49.26l0 35.97 -68.39 0c-38.38,0 -86.69,17.39 -86.69,69.86 0,43 34.66,66.49 76.88,66.49zm7.42 -21.49c-29.48,0 -56.68,-15.01 -56.68,-46.47 0,-39.83 32.78,-47.79 64.65,-47.79l62.79 0 0 26.28c0,40.21 -23.9,67.98 -70.76,67.98zm164.49 16.32l27.1 0 0 -139.53c0,-45.93 35.17,-75.01 72.08,-75.01 31.87,0 53.51,18.32 53.51,61.87l0 152.67 27.62 0 0 -165.28c0,-40.78 -23.9,-73.57 -72.62,-73.57 -32.82,0 -64.15,16.89 -80.59,50.06l-0.95 0 0 -44.47 -26.15 0 0 233.26zm322.76 4.25c9.81,0 28.54,-1.46 43.55,-6.12l0 -23.87c-11.3,2.76 -23.52,5.17 -35.71,5.17 -23.77,0 -36.53,-7.97 -36.53,-33.33l0 -156.38 69.34 0 0 -22.44 -69.34 0 0 -73.55 -27.61 0 0 73.55 -43.53 0 0 22.44 43.53 0 0 163.94c0,39.3 27.23,50.59 56.3,50.59z"/>
 </g>
</svg>
