<?xml version="1.0" encoding="UTF-8"?>
<!DOCTYPE svg PUBLIC "-//W3C//DTD SVG 1.1//EN" "http://www.w3.org/Graphics/SVG/1.1/DTD/svg11.dtd">
<!-- Creator: CorelDRAW -->
<svg xmlns="http://www.w3.org/2000/svg" xml:space="preserve" width="210mm" height="297mm" version="1.1" style="shape-rendering:geometricPrecision; text-rendering:geometricPrecision; image-rendering:optimizeQuality; fill-rule:evenodd; clip-rule:evenodd"
viewBox="0 0 21000 29700"
 xmlns:xlink="http://www.w3.org/1999/xlink"
 xmlns:xodm="http://www.corel.com/coreldraw/odm/2003">
 <defs>
  <style type="text/css">
   <![CDATA[
    .fil2 {fill:#1A1A18;fill-rule:nonzero}
    .fil0 {fill:#1B3C87;fill-rule:nonzero}
    .fil1 {fill:white;fill-rule:nonzero}
   ]]>
  </style>
 </defs>
 <g id="Layer_x0020_1">
  <metadata id="CorelCorpID_0Corel-Layer"/>
  <path id="path1932" class="fil0" d="M11391.88 14152.61c0,776 -629.06,1405.05 -1405.05,1405.05 -775.99,0 -1405.05,-629.05 -1405.05,-1405.05 0,-775.99 629.06,-1405.05 1405.05,-1405.05 775.99,0 1405.05,629.06 1405.05,1405.05z"/>
  <path id="path1964" class="fil1" d="M9810.1 13479.11l-449.87 0 0 1063.25 449.87 0c46.09,4.9 89.28,25.06 122.63,57.23l0 -1082.44c-36.79,-23.23 -79.08,-36.32 -122.63,-38.04z"/>
  <path id="path1966" class="fil1" d="M10137.27 14542.34l449.82 0 0 -1063.28 -449.82 0c-43.57,1.82 -85.86,14.91 -122.62,38.04l0 1082.54c33.33,-32.27 76.54,-52.41 122.62,-57.3z"/>
  <path id="path1968" class="fil1" d="M10709.74 13642.67l-40.8 0 0 981.49 -531.67 0c-53.51,5.68 -100.03,39.14 -122.72,87.94l0 127.13c17.16,-29 87.12,-133.28 204.52,-133.28l531.53 0 0 -1063.28 -40.86 0z"/>
  <path id="path1970" class="fil1" d="M9810.1 14624.13l-531.64 0 0 -981.51 -81.79 0 0 1063.28 531.64 0c117.4,0 187.33,104.28 204.42,133.3l0 -127.15c-22.6,-48.8 -69.14,-82.16 -122.63,-87.92z"/>
  <path id="path2698" class="fil2" d="M9335.82 16501.6c70.24,0 114.84,-38.79 114.84,-94.53 0,-51.13 -27.75,-75.41 -67.04,-86.71l-65.58 -19.24c-43.96,-13.01 -57.64,-33.73 -57.64,-61.35 0,-39.81 37.97,-58.53 75.01,-58.53 39.83,0 67.45,16.85 82.84,45.93l25.36 -10.35c-17.78,-42.63 -58.53,-60.81 -108.71,-60.81 -58.95,0 -103.95,34.12 -103.95,86.55 0,44.09 24.41,69.83 71.67,83.92l65.6 19.24c30.92,9.84 53.36,25.23 53.36,64.53 0,40.75 -36.5,65.58 -83.89,65.58 -48.21,0 -82.84,-23.37 -96.4,-62.66l-27.23 9.83c14.48,50.57 60.95,78.6 121.76,78.6zm251.99 0.53c55.22,0 88.55,-30.92 88.55,-77.26l0 -6.09 -26.69 0 0 7.96c0,24.29 -17.39,51.9 -61.45,51.9 -46.34,0 -65.45,-28.94 -65.45,-69.7l0 -56.69c0,-40.75 21.49,-71.7 65.04,-71.7 44.08,0 61.86,28.15 61.86,52.05l0 9.3 26.72 0 0 -7.04c0,-46.34 -34.25,-77.26 -89.1,-77.26 -56.15,0 -93.19,36.12 -93.19,96.52l0 54.28c0,60.02 35.71,93.73 93.73,93.73l-0.02 0zm141.5 -6.09l27.1 0 0 -139.54c0,-45.93 35.17,-75 72.09,-75 31.86,0 53.51,18.32 53.51,61.86l0 152.68 27.61 0 0 -165.28c0,-40.78 -23.9,-73.57 -72.62,-73.57 -31.87,0 -63.2,16.88 -79.13,50.05l-1.46 0 0 -145.62 -27.1 0 0 334.42zm332.58 6.09c53.76,0 93.6,-31.84 93.6,-92.27l0 -60.4c0,-59.07 -37.04,-91.86 -94.53,-91.86 -53.48,0 -94.65,31.46 -94.65,92.27l0 62.79c0,59.09 38.37,89.47 95.58,89.47zm0 -23.49c-45.93,0 -67.96,-27.07 -67.96,-66.91l0 -62.78c0,-41.71 22.95,-67.86 67.03,-67.86 45.8,0 66.91,28.02 66.91,65.99l0 63.19c0,44.6 -22.03,68.37 -65.98,68.37zm236.97 23.49c53.77,0 93.6,-31.84 93.6,-92.27l0 -60.4c0,-59.07 -37.04,-91.86 -94.52,-91.86 -53.49,0 -94.65,31.46 -94.65,92.27l0 62.79c0,59.09 38.37,89.47 95.57,89.47zm0 -23.49c-45.93,0 -67.96,-27.07 -67.96,-66.91l0 -62.78c0,-41.71 22.95,-67.86 67.04,-67.86 45.8,0 66.91,28.02 66.91,65.99l0 63.19c0,44.6 -22.03,68.37 -65.99,68.37zm205.52 19.78c10.35,0 23.49,-1.46 34.66,-4.77l0 -20.98c-7.43,0.93 -16.34,2.26 -25.77,2.26 -23.36,0 -33.71,-14.06 -33.71,-32.25l0 -281.06 -27.62 0 0 279.19c0,28.94 11.68,57.61 52.44,57.61z"/>
 </g>
</svg>
