<?xml version="1.0" encoding="UTF-8"?>
<!DOCTYPE svg PUBLIC "-//W3C//DTD SVG 1.1//EN" "http://www.w3.org/Graphics/SVG/1.1/DTD/svg11.dtd">
<!-- Creator: CorelDRAW -->
<svg xmlns="http://www.w3.org/2000/svg" xml:space="preserve" width="210mm" height="297mm" version="1.1" style="shape-rendering:geometricPrecision; text-rendering:geometricPrecision; image-rendering:optimizeQuality; fill-rule:evenodd; clip-rule:evenodd"
viewBox="0 0 21000 29700"
 xmlns:xlink="http://www.w3.org/1999/xlink"
 xmlns:xodm="http://www.corel.com/coreldraw/odm/2003">
 <defs>
  <style type="text/css">
   <![CDATA[
    .fil2 {fill:#1A1A18;fill-rule:nonzero}
    .fil0 {fill:#1B3C87;fill-rule:nonzero}
    .fil1 {fill:white;fill-rule:nonzero}
   ]]>
  </style>
 </defs>
 <g id="Layer_x0020_1">
  <metadata id="CorelCorpID_0Corel-Layer"/>
  <path id="path1952" class="fil0" d="M10981.57 15520.41c0,774.64 -626.88,1402.82 -1401,1405l-8.05 0c-774.12,-2.18 -1401.02,-630.36 -1401.02,-1405 0,-775.99 629.05,-1405.05 1405.05,-1405.05 775.99,0 1405.02,629.06 1405.02,1405.05z"/>
  <path id="path1954" class="fil1" d="M9626.16 15176.59l0 -153.08 347.64 0 -198.73 -149.29 198.73 -148.94 -347.64 4.15 0 -50.41c0,-27.02 -21.69,-49.08 -49.08,-49.44l-1.33 0c-27.02,0 -48.8,22.06 -48.8,49.44l0 497.57 -350.25 311.14 800.66 0.99 -351.2 -312.13zm-596.09 492.32l0 695.2 347.69 0 -3.53 -346.56c-0.72,-54.95 43.83,-100.21 99.24,-100.21l206.28 0c55.39,0 99.85,45.26 99.14,100.21l-3.82 346.56 347.92 0 0 -695.2 -1092.92 0z"/>
  <polygon id="path1956" class="fil1" points="10122.96,15626.39 9030.05,15626.39 9030.05,15535.01 10122.96,15535.01 "/>
  <path id="path2682" class="fil2" d="M8996.06 17852.23l29.58 0 0 -308.14 112.33 0 0 -25.74 -254.78 0 0 25.74 112.87 0 0 308.14zm232.44 6.1c30.94,0 63.19,-9.43 84.71,-40.35l-20.6 -13.01c-12.6,15.39 -32.25,29.87 -62.24,29.87 -45.01,0 -71.16,-26.16 -71.16,-67.45l0 -27.61 158.76 0 0 -34.13c0,-59.99 -37.96,-91.85 -90.01,-91.85 -55.74,0 -97.44,35.58 -97.44,99.82l0 50.59c0,64.12 40.75,94.12 97.98,94.12zm-69.29 -138.2l0 -12.61c0,-37.45 23.9,-70.77 66.5,-70.77 44.87,0 65.06,30.94 65.06,67.44l0 15.94 -131.56 0zm215.86 132.1l27.64 0 0 -141.91c0,-45.96 37.97,-72.62 70.76,-72.62 33.71,0 52.43,20.18 53.38,60.4l0 154.13 27.18 0 0 -143.37c1.33,-41.17 34.12,-71.16 70.24,-71.16 33.71,0 53.89,19.64 53.89,61.86l0 152.67 27.11 0 0 -167.68c0,-41.68 -27.08,-71.16 -72.63,-71.16 -34.65,0 -65.98,17.8 -82.84,50.97l-0.56 0c-6.51,-27.07 -27.62,-50.97 -65.96,-50.97 -33.74,0 -64.66,16.88 -81,50.05l-0.92 0 0 -44.47 -26.29 0 0 233.26zm399.05 90.81l27.11 0 0 -132.49 1.48 0c9.81,30.38 40.22,47.78 70.62,47.78 43.68,0 86.69,-25.75 86.69,-88.53l0 -76.75c0,-48.72 -33.17,-79.66 -82.43,-79.66 -26.7,0 -59.89,14.08 -76.34,47.26l-0.97 0 0 -41.68 -26.16 0 0 324.07zm95.47 -108.2c-36.5,0 -68.36,-28.54 -68.36,-73.42l0 -47.8c0,-48.72 35.58,-76.33 67.95,-76.33 39.3,0 62.66,25.23 62.66,57.63l0 78.59c0,42.22 -31.71,61.33 -62.25,61.33zm202.32 19.77c10.35,0 23.49,-1.46 34.66,-4.76l0 -20.98c-7.43,0.92 -16.34,2.25 -25.77,2.25 -23.36,0 -33.71,-14.06 -33.71,-32.25l0 -281.06 -27.61 0 0 279.19c0,28.95 11.68,57.61 52.43,57.61zm168.76 3.72c30.95,0 63.2,-9.43 84.71,-40.35l-20.59 -13.01c-12.6,15.39 -32.25,29.87 -62.25,29.87 -45.01,0 -71.16,-26.16 -71.16,-67.45l0 -27.61 158.74 0 0 -34.13c0,-59.99 -37.96,-91.85 -90.01,-91.85 -55.74,0 -97.45,35.58 -97.45,99.82l0 50.59c0,64.12 40.76,94.12 97.99,94.12l0.02 0zm-69.32 -138.2l0 -12.61c0,-37.45 23.9,-70.77 66.5,-70.77 44.88,0 65.07,30.94 65.07,67.44l0 15.94 -131.57 0z"/>
 </g>
</svg>
