<?xml version="1.0" encoding="UTF-8"?>
<!DOCTYPE svg PUBLIC "-//W3C//DTD SVG 1.1//EN" "http://www.w3.org/Graphics/SVG/1.1/DTD/svg11.dtd">
<!-- Creator: CorelDRAW -->
<svg xmlns="http://www.w3.org/2000/svg" xml:space="preserve" width="210mm" height="297mm" version="1.1" style="shape-rendering:geometricPrecision; text-rendering:geometricPrecision; image-rendering:optimizeQuality; fill-rule:evenodd; clip-rule:evenodd"
viewBox="0 0 21000 29700"
 xmlns:xlink="http://www.w3.org/1999/xlink"
 xmlns:xodm="http://www.corel.com/coreldraw/odm/2003">
 <defs>
  <style type="text/css">
   <![CDATA[
    .fil2 {fill:#1A1A18;fill-rule:nonzero}
    .fil0 {fill:#1B3C87;fill-rule:nonzero}
    .fil1 {fill:white;fill-rule:nonzero}
   ]]>
  </style>
 </defs>
 <g id="Layer_x0020_1">
  <metadata id="CorelCorpID_0Corel-Layer"/>
  <path id="path1934" class="fil0" d="M10850.48 16964.3c0,776 -629.06,1405.05 -1405.05,1405.05 -775.99,0 -1405.05,-629.05 -1405.05,-1405.05 0,-775.99 629.06,-1405.05 1405.05,-1405.05 775.99,0 1405.05,629.06 1405.05,1405.05z"/>
  <g>
   <path id="path2010" class="fil1" d="M9010.14 16360.48l-84.26 0c-46.54,0 -84.3,37.68 -84.3,84.22l252.76 0c0,-46.54 -37.69,-84.22 -84.23,-84.22l0.03 0zm0 0l0 0 0 0z"/>
  </g>
  <path id="path2012" class="fil1" d="M9981.84 16714.31c-45.11,34.36 -96.06,-16.62 -61.74,-61.7 45.11,-34.36 96.06,16.62 61.74,61.7zm-283.86 635.67c-406.94,258.08 -840.06,-175.14 -581.97,-581.97 19.62,-31 45.9,-57.31 76.9,-77.01 406.83,-258.08 840.06,175.14 581.97,581.98 -19.59,30.99 -46,57.28 -76.9,77zm-786.21 -624.37c-36.68,0 -62.53,-47.16 -20.24,-84.3l124.8 0c42.3,37.14 16.55,84.3 -20.23,84.3l-84.33 0zm1252.61 -196.63l-435.86 0 -56.1 -168.55 -453.92 0 -56.23 168.55 -435.83 0 0 1039.15 1437.94 0 0 -1039.15z"/>
  <path id="path2014" class="fil1" d="M9445.46 17245.16c-123.91,0 -224.68,-100.75 -224.68,-224.65 0,-123.91 100.77,-224.76 224.68,-224.76 123.88,0 224.65,100.85 224.65,224.76 0,123.9 -100.77,224.65 -224.65,224.65zm0 -547.62c-178.14,0 -323,144.86 -323,322.97 0,178.03 144.86,322.96 323,322.96 178.11,0 322.97,-144.93 322.97,-322.96 0,-178.11 -144.86,-322.97 -322.97,-322.97z"/>
  <path id="path2016" class="fil1" d="M9445.46 16880.05c77.51,0 140.43,62.89 140.43,140.43 0,77.54 -62.92,140.43 -140.43,140.43 -77.54,0 -140.46,-62.89 -140.46,-140.43 0,-77.54 62.92,-140.43 140.46,-140.43z"/>
  <g>
   <path id="path2712" class="fil2" d="M8680.28 19307.88l29.63 0 0 -308.14 112.31 0 0 -25.74 -254.78 0 0 25.74 112.84 0 0 308.14zm230.59 6.1c53.77,0 93.6,-31.84 93.6,-92.27l0 -60.41c0,-59.07 -37.04,-91.86 -94.52,-91.86 -53.49,0 -94.65,31.46 -94.65,92.27l0 62.79c0,59.1 38.37,89.48 95.57,89.48zm0 -23.49c-45.93,0 -67.96,-27.08 -67.96,-66.91l0 -62.79c0,-41.7 22.96,-67.86 67.04,-67.86 45.8,0 66.91,28.03 66.91,65.99l0 63.2c0,44.6 -22.03,68.37 -65.99,68.37zm222.92 22.97c32.78,0 64.11,-16.34 80.58,-50.05l0.93 0 0 44.47 26.15 0 0 -233.26 -27.08 0 0 139.53c0,45.93 -35.17,75 -71.7,75 -32.37,0 -53.89,-18.31 -53.89,-61.86l0 -152.67 -27.62 0 0 165.27c0,40.79 23.9,73.57 72.63,73.57zm175.65 -5.58l27.58 0 0 -129.69c1.46,-52.98 36.53,-81.13 81.54,-81.13 5.56,0 13.53,0 21.49,1.46l0 -25.77c-4.63,-0.92 -10.76,-1.46 -16.31,-1.46 -31.49,0 -66.12,11.3 -86.72,52.97l-0.92 0 0 -49.64 -26.66 0 0 233.26zm172.42 0l27.1 0 0 -233.26 -27.1 0 0 233.26zm0 -289.41l27.1 0 0 -47.8 -27.1 0 0 47.8zm171.96 294.99c43.93,0 88.43,-24.82 88.43,-73.95 0,-34.25 -22.98,-51.51 -55.77,-59.07l-34.66 -7.45c-34.12,-7.43 -52.84,-16.86 -52.84,-41.14 0,-23.9 20.59,-41.3 51.51,-41.3 27.61,0 46.88,7.56 61.74,19.65l18.34 -15.4c-17.81,-18.31 -45.01,-25.77 -77.83,-25.77 -51.48,0 -80.97,29.49 -80.97,67.45 0,32.79 24.82,51.52 66.12,59.48l25.74 5.59c32.28,6.09 50.06,14.98 50.06,43.54 0,30 -30.41,46.47 -60.41,46.47 -30.92,0 -52.97,-9.42 -72.62,-28.15l-18.73 15.93c21.52,24.83 54.85,34.12 91.89,34.12zm218.63 -1.33c9.82,0 28.54,-1.46 43.55,-6.12l0 -23.87c-11.29,2.76 -23.51,5.17 -35.71,5.17 -23.77,0 -36.53,-7.97 -36.53,-33.33l0 -156.38 69.32 0 0 -22.44 -69.32 0 0 -73.55 -27.58 0 0 73.55 -43.55 0 0 22.44 43.55 0 0 163.94c0,39.3 27.23,50.59 56.3,50.59l-0.03 0zm0 0l0 0 0 0z"/>
  </g>
  <path id="path2714" class="fil2" d="M8452.29 19944.85l205.49 0 0 -26.28 -176.03 0 0 -308.14 -29.46 0 0 334.42zm316.13 5.18c28.54,0 59.87,-6.1 79.13,-42.22l0.92 0c0,7.05 0.92,29.08 1.85,37.04l27.23 0c-1.46,-10.35 -3.33,-45 -3.33,-58.56l0 -113.37c0,-50.57 -40.22,-66.91 -85.64,-66.91 -43.52,0 -86.68,17.26 -86.68,63.73l0 7.05 25.23 0 0 -7.59c0,-30.4 30.92,-40.75 59.99,-40.75 35.2,0 59.48,12.63 59.48,49.26l0 35.96 -68.37 0c-38.37,0 -86.68,17.4 -86.68,69.86 0,43.01 34.66,66.5 76.87,66.5zm7.43 -21.49c-29.48,0 -56.69,-15.02 -56.69,-46.47 0,-39.84 32.79,-47.8 64.66,-47.8l62.78 0 0 26.28c0,40.22 -23.9,67.99 -70.75,67.99zm235.64 22.41c25.77,0 58.95,-14.6 75.83,-52.03l0.92 0 0 45.93 26.69 0 0 -333.49 -27.61 0 0 142.45 -0.95 0c-9.81,-30.54 -40.76,-47.8 -70.62,-47.8 -44.06,0 -86.69,25.77 -86.69,88.55l0 76.75c0,48.72 32.79,79.64 82.43,79.64zm7.97 -23.87c-39.42,0 -62.79,-25.36 -62.79,-57.64l0 -78.72c0,-42.09 32.26,-61.35 62.28,-61.35 37.04,0 68.88,28.56 68.88,73.57l0 45.93c0,48.72 -35.58,78.21 -68.37,78.21zm165.84 17.77l27.61 0 0 -141.91c0,-45.96 37.97,-72.62 70.76,-72.62 33.71,0 52.43,20.18 53.38,60.4l0 154.13 27.23 0 0 -143.37c1.33,-41.17 34.12,-71.16 70.24,-71.16 33.71,0 53.9,19.65 53.9,61.86l0 152.67 27.05 0 0 -167.68c0,-41.68 -27.08,-71.16 -72.62,-71.16 -34.66,0 -65.99,17.8 -82.85,50.97l-0.54 0c-6.5,-27.07 -27.61,-50.97 -65.96,-50.97 -33.73,0 -64.65,16.88 -81,50.05l-0.92 0 0 -44.47 -26.28 0 0 233.26zm463.19 5.18c28.54,0 59.87,-6.1 79.13,-42.22l0.92 0c0,7.05 0.93,29.08 1.85,37.04l27.23 0c-1.46,-10.35 -3.33,-45 -3.33,-58.56l0 -113.37c0,-50.57 -40.22,-66.91 -85.64,-66.91 -43.52,0 -86.68,17.26 -86.68,63.73l0 7.05 25.23 0 0 -7.59c0,-30.4 30.92,-40.75 59.99,-40.75 35.2,0 59.48,12.63 59.48,49.26l0 35.96 -68.37 0c-38.37,0 -86.68,17.4 -86.68,69.86 0,43.01 34.66,66.5 76.87,66.5zm7.43 -21.49c-29.48,0 -56.69,-15.02 -56.69,-46.47 0,-39.84 32.79,-47.8 64.66,-47.8l62.78 0 0 26.28c0,40.22 -23.9,67.99 -70.75,67.99zm163.05 16.31l27.59 0 0 -129.69c1.46,-52.98 36.53,-81.13 81.53,-81.13 5.56,0 13.53,0 21.5,1.46l0 -25.77c-4.64,-0.92 -10.76,-1.46 -16.32,-1.46 -31.48,0 -66.12,11.3 -86.71,52.98l-0.93 0 0 -49.65 -26.66 0 0 233.26zm172.42 0l27.62 0 0 -80.05 45.41 -47.8 75.8 127.85 30.95 0 -87.51 -147.49 80.08 -85.77 -33.71 0 -111 121.35 0 -222.51 -27.64 0 0 334.42z"/>
 </g>
</svg>
